<svg width="898.637" height="351.573" viewBox="0 0 898.637 351.573" xmlns="http://www.w3.org/2000/svg" style=""><g id="svgGroup" stroke-linecap="round" fill-rule="evenodd" font-size="9pt" stroke="#00988d" stroke-width="0.25mm" fill="none" style="stroke:#00988d;stroke-width:0.75mm;fill:none"><path stroke-width="4" color="#00988d" d="M 250.618 205.403 A 188.868 188.868 0 0 0 269.141 267.583 A 180.016 180.016 0 0 0 273.424 275.567 A 148.491 148.491 0 0 0 325 329.693 A 144.802 144.802 0 0 0 349.897 341.921 A 155.27 155.27 0 0 0 405.078 351.568 A 177.971 177.971 0 0 0 410.609 351.482 A 148.473 148.473 0 0 0 485.156 329.693 A 143.799 143.799 0 0 0 510.603 309.802 A 158.862 158.862 0 0 0 541.016 267.583 A 181.985 181.985 0 0 0 555.637 227.197 A 223.371 223.371 0 0 0 561.328 175.787 A 238.472 238.472 0 0 0 559.538 146.17 A 188.868 188.868 0 0 0 541.016 83.99 A 180.016 180.016 0 0 0 536.733 76.007 A 148.491 148.491 0 0 0 485.156 21.88 A 144.802 144.802 0 0 0 460.259 9.652 A 155.27 155.27 0 0 0 405.078 0.005 A 177.971 177.971 0 0 0 399.547 0.091 A 148.473 148.473 0 0 0 325 21.88 A 143.799 143.799 0 0 0 299.554 41.772 A 158.862 158.862 0 0 0 269.141 83.99 A 181.985 181.985 0 0 0 254.519 124.377 A 223.371 223.371 0 0 0 248.828 175.787 A 238.472 238.472 0 0 0 250.618 205.403 Z M 587.923 205.403 A 188.868 188.868 0 0 0 606.445 267.583 A 180.016 180.016 0 0 0 610.728 275.567 A 148.491 148.491 0 0 0 662.305 329.693 A 144.802 144.802 0 0 0 687.202 341.921 A 155.27 155.27 0 0 0 742.383 351.568 A 177.971 177.971 0 0 0 747.914 351.482 A 148.473 148.473 0 0 0 822.461 329.693 A 143.799 143.799 0 0 0 847.907 309.802 A 158.862 158.862 0 0 0 878.32 267.583 A 181.985 181.985 0 0 0 892.942 227.197 A 223.371 223.371 0 0 0 898.633 175.787 A 238.472 238.472 0 0 0 896.843 146.17 A 188.868 188.868 0 0 0 878.32 83.99 A 180.016 180.016 0 0 0 874.037 76.007 A 148.491 148.491 0 0 0 822.461 21.88 A 144.802 144.802 0 0 0 797.564 9.652 A 155.27 155.27 0 0 0 742.383 0.005 A 177.971 177.971 0 0 0 736.852 0.091 A 148.473 148.473 0 0 0 662.305 21.88 A 143.799 143.799 0 0 0 636.858 41.772 A 158.862 158.862 0 0 0 606.445 83.99 A 181.985 181.985 0 0 0 591.823 124.377 A 223.371 223.371 0 0 0 586.133 175.787 A 238.472 238.472 0 0 0 587.923 205.403 Z M 273.633 109.673 A 189.216 189.216 0 0 0 263.562 158.251 A 225.257 225.257 0 0 0 262.891 175.787 A 208.487 208.487 0 0 0 267.407 219.881 A 179.699 179.699 0 0 0 273.633 241.9 A 165.609 165.609 0 0 0 288.044 272.678 A 135.216 135.216 0 0 0 303.223 293.169 A 132.941 132.941 0 0 0 348.34 325.787 A 137.203 137.203 0 0 0 403.163 337.494 A 157.418 157.418 0 0 0 405.078 337.505 A 139.372 139.372 0 0 0 453.505 329.163 A 132.563 132.563 0 0 0 461.816 325.787 A 132.941 132.941 0 0 0 506.934 293.169 A 140.849 140.849 0 0 0 528.914 260.171 A 175.972 175.972 0 0 0 536.523 241.9 A 189.216 189.216 0 0 0 546.594 193.322 A 225.257 225.257 0 0 0 547.266 175.787 A 208.487 208.487 0 0 0 542.749 131.692 A 179.699 179.699 0 0 0 536.523 109.673 A 165.609 165.609 0 0 0 522.112 78.895 A 135.216 135.216 0 0 0 506.934 58.404 A 132.941 132.941 0 0 0 461.816 25.787 A 137.203 137.203 0 0 0 406.993 14.079 A 157.418 157.418 0 0 0 405.078 14.068 A 139.372 139.372 0 0 0 356.652 22.411 A 132.563 132.563 0 0 0 348.34 25.787 A 132.941 132.941 0 0 0 303.223 58.404 A 140.849 140.849 0 0 0 281.242 91.402 A 175.972 175.972 0 0 0 273.633 109.673 Z M 610.938 109.673 A 189.216 189.216 0 0 0 600.867 158.251 A 225.257 225.257 0 0 0 600.195 175.787 A 208.487 208.487 0 0 0 604.712 219.881 A 179.699 179.699 0 0 0 610.938 241.9 A 165.609 165.609 0 0 0 625.348 272.678 A 135.216 135.216 0 0 0 640.527 293.169 A 132.941 132.941 0 0 0 685.645 325.787 A 137.203 137.203 0 0 0 740.468 337.494 A 157.418 157.418 0 0 0 742.383 337.505 A 139.372 139.372 0 0 0 790.809 329.163 A 132.563 132.563 0 0 0 799.121 325.787 A 132.941 132.941 0 0 0 844.238 293.169 A 140.849 140.849 0 0 0 866.219 260.171 A 175.972 175.972 0 0 0 873.828 241.9 A 189.216 189.216 0 0 0 883.899 193.322 A 225.257 225.257 0 0 0 884.57 175.787 A 208.487 208.487 0 0 0 880.054 131.692 A 179.699 179.699 0 0 0 873.828 109.673 A 165.609 165.609 0 0 0 859.417 78.895 A 135.216 135.216 0 0 0 844.238 58.404 A 132.941 132.941 0 0 0 799.121 25.787 A 137.203 137.203 0 0 0 744.298 14.079 A 157.418 157.418 0 0 0 742.383 14.068 A 139.372 139.372 0 0 0 693.956 22.411 A 132.563 132.563 0 0 0 685.645 25.787 A 132.941 132.941 0 0 0 640.527 58.404 A 140.849 140.849 0 0 0 618.547 91.402 A 175.972 175.972 0 0 0 610.938 109.673 Z M 531.163 146.155 A 160.248 160.248 0 0 0 516.699 98.15 A 147.519 147.519 0 0 0 511.234 88 A 120.327 120.327 0 0 0 471.094 46.294 A 116.982 116.982 0 0 0 447.919 35.137 A 128.167 128.167 0 0 0 405.078 28.13 A 145.752 145.752 0 0 0 398.225 28.29 A 120.471 120.471 0 0 0 339.062 46.294 Q 309.961 64.458 293.457 98.15 Q 276.953 131.841 276.953 175.787 A 208.057 208.057 0 0 0 278.993 205.418 A 160.248 160.248 0 0 0 293.457 253.423 A 147.519 147.519 0 0 0 298.922 263.573 A 120.327 120.327 0 0 0 339.063 305.279 A 116.982 116.982 0 0 0 362.238 316.436 A 128.167 128.167 0 0 0 405.078 323.443 A 145.752 145.752 0 0 0 411.931 323.283 A 120.471 120.471 0 0 0 471.094 305.279 Q 500.195 287.115 516.699 253.423 Q 533.203 219.732 533.203 175.787 A 208.057 208.057 0 0 0 531.163 146.155 Z M 868.468 146.155 A 160.248 160.248 0 0 0 854.004 98.15 A 147.519 147.519 0 0 0 848.539 88 A 120.327 120.327 0 0 0 808.398 46.294 A 116.982 116.982 0 0 0 785.223 35.137 A 128.167 128.167 0 0 0 742.383 28.13 A 145.752 145.752 0 0 0 735.53 28.29 A 120.471 120.471 0 0 0 676.367 46.294 Q 647.266 64.458 630.762 98.15 Q 614.258 131.841 614.258 175.787 A 208.057 208.057 0 0 0 616.298 205.418 A 160.248 160.248 0 0 0 630.762 253.423 A 147.519 147.519 0 0 0 636.227 263.573 A 120.327 120.327 0 0 0 676.367 305.279 A 116.982 116.982 0 0 0 699.542 316.436 A 128.167 128.167 0 0 0 742.383 323.443 A 145.752 145.752 0 0 0 749.236 323.283 A 120.471 120.471 0 0 0 808.398 305.279 Q 837.5 287.115 854.004 253.423 Q 870.508 219.732 870.508 175.787 A 208.057 208.057 0 0 0 868.468 146.155 Z M 322.754 78.716 A 124.832 124.832 0 0 0 295.859 132.15 Q 291.318 150.886 291.035 172.845 A 227.683 227.683 0 0 0 291.016 175.787 A 187.462 187.462 0 0 0 295.295 217.012 Q 301.975 246.66 319.081 268.415 A 117.445 117.445 0 0 0 322.754 272.857 Q 354.492 309.38 405.078 309.38 A 113.732 113.732 0 0 0 446.887 301.946 A 103.054 103.054 0 0 0 487.402 272.857 A 124.832 124.832 0 0 0 514.298 219.423 Q 518.838 200.687 519.122 178.729 A 227.683 227.683 0 0 0 519.141 175.787 A 187.462 187.462 0 0 0 514.861 134.562 Q 508.182 104.913 491.075 83.158 A 117.445 117.445 0 0 0 487.402 78.716 Q 455.664 42.193 405.078 42.193 A 113.732 113.732 0 0 0 363.269 49.627 A 103.054 103.054 0 0 0 322.754 78.716 Z M 660.059 78.716 A 124.832 124.832 0 0 0 633.163 132.15 Q 628.623 150.886 628.339 172.845 A 227.683 227.683 0 0 0 628.32 175.787 A 187.462 187.462 0 0 0 632.599 217.012 Q 639.279 246.66 656.386 268.415 A 117.445 117.445 0 0 0 660.059 272.857 Q 691.797 309.38 742.383 309.38 A 113.732 113.732 0 0 0 784.192 301.946 A 103.054 103.054 0 0 0 824.707 272.857 A 124.832 124.832 0 0 0 851.602 219.423 Q 856.143 200.687 856.426 178.729 A 227.683 227.683 0 0 0 856.445 175.787 A 187.462 187.462 0 0 0 852.166 134.562 Q 845.486 104.913 828.38 83.158 A 117.445 117.445 0 0 0 824.707 78.716 Q 792.969 42.193 742.383 42.193 A 113.732 113.732 0 0 0 700.573 49.627 A 103.054 103.054 0 0 0 660.059 78.716 Z M 500.159 133.607 A 110.633 110.633 0 0 0 477.441 88.677 A 89.314 89.314 0 0 0 440.943 62.461 A 100.018 100.018 0 0 0 405.078 56.255 A 118.061 118.061 0 0 0 398.109 56.458 A 89.406 89.406 0 0 0 332.715 88.677 Q 305.078 121.099 305.078 175.787 A 209.387 209.387 0 0 0 305.16 181.669 Q 305.712 201.321 309.997 217.966 A 110.633 110.633 0 0 0 332.715 262.896 A 89.314 89.314 0 0 0 369.213 289.112 A 100.018 100.018 0 0 0 405.078 295.318 A 118.061 118.061 0 0 0 412.047 295.115 A 89.406 89.406 0 0 0 477.441 262.896 Q 505.078 230.474 505.078 175.787 A 209.387 209.387 0 0 0 504.996 169.904 Q 504.444 150.252 500.159 133.607 Z M 837.464 133.607 A 110.633 110.633 0 0 0 814.746 88.677 A 89.314 89.314 0 0 0 778.247 62.461 A 100.018 100.018 0 0 0 742.383 56.255 A 118.061 118.061 0 0 0 735.414 56.458 A 89.406 89.406 0 0 0 670.02 88.677 Q 642.383 121.099 642.383 175.787 A 209.387 209.387 0 0 0 642.465 181.669 Q 643.017 201.321 647.302 217.966 A 110.633 110.633 0 0 0 670.02 262.896 A 89.314 89.314 0 0 0 706.518 289.112 A 100.018 100.018 0 0 0 742.383 295.318 A 118.061 118.061 0 0 0 749.352 295.115 A 89.406 89.406 0 0 0 814.746 262.896 Q 842.383 230.474 842.383 175.787 A 209.387 209.387 0 0 0 842.301 169.904 Q 841.749 150.252 837.464 133.607 Z M 342.676 98.541 Q 319.141 126.763 319.141 175.787 A 164.886 164.886 0 0 0 321.914 206.991 Q 325.396 225.042 333.249 239.23 A 88.141 88.141 0 0 0 342.676 253.033 A 76.017 76.017 0 0 0 397.925 281.007 A 101.43 101.43 0 0 0 405.078 281.255 A 86.566 86.566 0 0 0 435.144 276.232 A 75.662 75.662 0 0 0 467.48 253.033 Q 491.016 224.81 491.016 175.787 A 164.886 164.886 0 0 0 488.243 144.582 Q 484.761 126.531 476.907 112.343 A 88.141 88.141 0 0 0 467.48 98.541 A 76.017 76.017 0 0 0 412.231 70.566 A 101.43 101.43 0 0 0 405.078 70.318 A 86.566 86.566 0 0 0 375.013 75.341 A 75.662 75.662 0 0 0 342.676 98.541 Z M 679.98 98.541 Q 656.445 126.763 656.445 175.787 A 164.886 164.886 0 0 0 659.218 206.991 Q 662.7 225.042 670.554 239.23 A 88.141 88.141 0 0 0 679.98 253.033 A 76.017 76.017 0 0 0 735.23 281.007 A 101.43 101.43 0 0 0 742.383 281.255 A 86.566 86.566 0 0 0 772.448 276.232 A 75.662 75.662 0 0 0 804.785 253.033 Q 828.32 224.81 828.32 175.787 A 164.886 164.886 0 0 0 825.547 144.582 Q 822.065 126.531 814.212 112.343 A 88.141 88.141 0 0 0 804.785 98.541 A 76.017 76.017 0 0 0 749.536 70.566 A 101.43 101.43 0 0 0 742.383 70.318 A 86.566 86.566 0 0 0 712.317 75.341 A 75.662 75.662 0 0 0 679.98 98.541 Z M 471.786 136.337 A 80.941 80.941 0 0 0 457.52 108.501 A 62.154 62.154 0 0 0 429.657 88.361 A 72.756 72.756 0 0 0 405.078 84.38 A 85.001 85.001 0 0 0 398.513 84.629 A 62.677 62.677 0 0 0 352.637 108.501 A 75.369 75.369 0 0 0 343.181 123.706 Q 333.203 144.857 333.203 175.787 A 172.164 172.164 0 0 0 333.72 189.364 Q 334.838 203.483 338.37 215.237 A 80.941 80.941 0 0 0 352.637 243.072 A 62.154 62.154 0 0 0 380.5 263.212 A 72.756 72.756 0 0 0 405.078 267.193 A 85.001 85.001 0 0 0 411.643 266.944 A 62.677 62.677 0 0 0 457.52 243.072 A 75.369 75.369 0 0 0 466.975 227.868 Q 476.953 206.716 476.953 175.787 A 172.164 172.164 0 0 0 476.436 162.209 Q 475.318 148.09 471.786 136.337 Z M 809.091 136.337 A 80.941 80.941 0 0 0 794.824 108.501 A 62.154 62.154 0 0 0 766.961 88.361 A 72.756 72.756 0 0 0 742.383 84.38 A 85.001 85.001 0 0 0 735.818 84.629 A 62.677 62.677 0 0 0 689.941 108.501 A 75.369 75.369 0 0 0 680.486 123.706 Q 670.508 144.857 670.508 175.787 A 172.164 172.164 0 0 0 671.025 189.364 Q 672.143 203.483 675.675 215.237 A 80.941 80.941 0 0 0 689.941 243.072 A 62.154 62.154 0 0 0 717.804 263.212 A 72.756 72.756 0 0 0 742.383 267.193 A 85.001 85.001 0 0 0 748.948 266.944 A 62.677 62.677 0 0 0 794.824 243.072 A 75.369 75.369 0 0 0 804.28 227.868 Q 814.258 206.716 814.258 175.787 A 172.164 172.164 0 0 0 813.741 162.209 Q 812.623 148.09 809.091 136.337 Z M 225.391 225.005 L 0.391 225.005 L 0.391 210.943 L 225.391 210.943 L 225.391 225.005 Z M 225.391 253.13 L 0.391 253.13 L 0.391 239.068 L 225.391 239.068 L 225.391 253.13 Z M 225.391 281.255 L 0.391 281.255 L 0.391 267.193 L 225.391 267.193 L 225.391 281.255 Z M 0 203.912 L 87.695 14.263 L 103.906 14.068 L 16.406 203.912 L 0 203.912 Z M 31.836 203.912 L 119.727 14.263 L 135.352 14.263 L 48.242 203.912 L 31.836 203.912 Z M 64.453 203.912 L 151.172 14.263 L 167.188 14.263 L 80.859 203.912 L 64.453 203.912 Z M 98.242 203.912 L 183.203 14.263 L 199.414 14.068 L 114.648 203.912 L 98.242 203.912 Z M 362.598 118.365 A 65.746 65.746 0 0 0 352.252 138.731 Q 349.311 147.973 348.105 159.205 A 155.48 155.48 0 0 0 347.266 175.787 A 147.056 147.056 0 0 0 348.763 197.508 Q 352.057 219.512 362.598 233.208 A 49.378 49.378 0 0 0 398.476 252.819 A 68.373 68.373 0 0 0 405.078 253.13 A 59.236 59.236 0 0 0 424.309 250.151 A 48.787 48.787 0 0 0 447.559 233.208 A 65.746 65.746 0 0 0 457.904 212.843 Q 460.845 203.6 462.052 192.369 A 155.48 155.48 0 0 0 462.891 175.787 A 147.056 147.056 0 0 0 461.393 154.066 Q 458.099 132.061 447.559 118.365 A 49.378 49.378 0 0 0 411.681 98.754 A 68.373 68.373 0 0 0 405.078 98.443 A 59.236 59.236 0 0 0 385.848 101.422 A 48.787 48.787 0 0 0 362.598 118.365 Z M 699.902 118.365 A 65.746 65.746 0 0 0 689.557 138.731 Q 686.616 147.973 685.409 159.205 A 155.48 155.48 0 0 0 684.57 175.787 A 147.056 147.056 0 0 0 686.068 197.508 Q 689.362 219.512 699.902 233.208 A 49.378 49.378 0 0 0 735.78 252.819 A 68.373 68.373 0 0 0 742.383 253.13 A 59.236 59.236 0 0 0 761.613 250.151 A 48.787 48.787 0 0 0 784.863 233.208 A 65.746 65.746 0 0 0 795.208 212.843 Q 798.15 203.6 799.356 192.369 A 155.48 155.48 0 0 0 800.195 175.787 A 147.056 147.056 0 0 0 798.698 154.066 Q 795.404 132.061 784.863 118.365 A 49.378 49.378 0 0 0 748.985 98.754 A 68.373 68.373 0 0 0 742.383 98.443 A 59.236 59.236 0 0 0 723.152 101.422 A 48.787 48.787 0 0 0 699.902 118.365 Z M 175.977 148.052 L 175.977 204.107 L 161.914 204.107 L 161.914 148.052 L 175.977 148.052 Z M 204.102 148.052 L 204.102 204.107 L 190.039 204.107 L 190.039 148.052 L 204.102 148.052 Z M 175.977 288.482 L 175.977 337.505 L 161.914 337.505 L 161.914 288.482 L 175.977 288.482 Z M 204.102 288.482 L 204.102 337.505 L 190.039 337.505 L 190.039 288.482 L 204.102 288.482 Z" vector-effect="non-scaling-stroke" class="gDySoFdz_0"></path></g><style data-made-with="vivus-instant">.gDySoFdz_0{stroke-dasharray:15696 15698;stroke-dashoffset:15697;animation:gDySoFdz_draw_0 30400ms linear 0ms infinite,gDySoFdz_fade 30400ms linear 0ms infinite;}@keyframes gDySoFdz_draw{100%{stroke-dashoffset:0;}}@keyframes gDySoFdz_fade{0%{stroke-opacity:1;}98.6842105263158%{stroke-opacity:1;}100%{stroke-opacity:0;}}@keyframes gDySoFdz_draw_0{0%{stroke-dashoffset: 15697}65.78947368421053%{ stroke-dashoffset: 0;}100%{ stroke-dashoffset: 0;}}</style></svg>