<svg width="726.367" height="351.573" viewBox="0 0 726.367 351.573" xmlns="http://www.w3.org/2000/svg" style=""><g id="svgGroup" stroke-linecap="round" fill-rule="evenodd" font-size="9pt" stroke="#000" stroke-width="0.75mm" fill="none" style="stroke:#650087;stroke-width:0.75mm;fill:none"><path color="#650087" stroke-width="4" d="M 627.93 84.38 L 584.57 84.38 L 584.57 70.318 L 726.367 70.318 L 726.367 337.505 L 712.305 337.505 L 712.305 84.38 L 698.242 84.38 L 698.242 337.505 L 684.18 337.505 L 684.18 84.38 L 670.117 84.38 L 670.117 337.505 L 656.055 337.505 L 656.055 84.38 L 641.992 84.38 L 641.992 337.505 L 627.93 337.505 L 627.93 84.38 Z M 250.618 205.403 A 188.868 188.868 0 0 0 269.141 267.583 A 180.016 180.016 0 0 0 273.424 275.567 A 148.491 148.491 0 0 0 325 329.693 A 144.802 144.802 0 0 0 349.897 341.921 A 155.27 155.27 0 0 0 405.078 351.568 A 177.971 177.971 0 0 0 410.609 351.482 A 148.473 148.473 0 0 0 485.156 329.693 A 143.799 143.799 0 0 0 510.603 309.802 A 158.862 158.862 0 0 0 541.016 267.583 A 181.985 181.985 0 0 0 555.637 227.197 A 223.371 223.371 0 0 0 561.328 175.787 A 238.472 238.472 0 0 0 559.538 146.17 A 188.868 188.868 0 0 0 541.016 83.99 A 180.016 180.016 0 0 0 536.733 76.007 A 148.491 148.491 0 0 0 485.156 21.88 A 144.802 144.802 0 0 0 460.259 9.652 A 155.27 155.27 0 0 0 405.078 0.005 A 177.971 177.971 0 0 0 399.547 0.091 A 148.473 148.473 0 0 0 325 21.88 A 143.799 143.799 0 0 0 299.554 41.772 A 158.862 158.862 0 0 0 269.141 83.99 A 181.985 181.985 0 0 0 254.519 124.377 A 223.371 223.371 0 0 0 248.828 175.787 A 238.472 238.472 0 0 0 250.618 205.403 Z M 273.633 109.673 A 189.216 189.216 0 0 0 263.562 158.251 A 225.257 225.257 0 0 0 262.891 175.787 A 208.487 208.487 0 0 0 267.407 219.881 A 179.699 179.699 0 0 0 273.633 241.9 A 165.609 165.609 0 0 0 288.044 272.678 A 135.216 135.216 0 0 0 303.223 293.169 A 132.941 132.941 0 0 0 348.34 325.787 A 137.203 137.203 0 0 0 403.163 337.494 A 157.418 157.418 0 0 0 405.078 337.505 A 139.372 139.372 0 0 0 453.505 329.163 A 132.563 132.563 0 0 0 461.816 325.787 A 132.941 132.941 0 0 0 506.934 293.169 A 140.849 140.849 0 0 0 528.914 260.171 A 175.972 175.972 0 0 0 536.523 241.9 A 189.216 189.216 0 0 0 546.594 193.322 A 225.257 225.257 0 0 0 547.266 175.787 A 208.487 208.487 0 0 0 542.749 131.692 A 179.699 179.699 0 0 0 536.523 109.673 A 165.609 165.609 0 0 0 522.112 78.895 A 135.216 135.216 0 0 0 506.934 58.404 A 132.941 132.941 0 0 0 461.816 25.787 A 137.203 137.203 0 0 0 406.993 14.079 A 157.418 157.418 0 0 0 405.078 14.068 A 139.372 139.372 0 0 0 356.652 22.411 A 132.563 132.563 0 0 0 348.34 25.787 A 132.941 132.941 0 0 0 303.223 58.404 A 140.849 140.849 0 0 0 281.242 91.402 A 175.972 175.972 0 0 0 273.633 109.673 Z M 531.163 146.155 A 160.248 160.248 0 0 0 516.699 98.15 A 147.519 147.519 0 0 0 511.234 88 A 120.327 120.327 0 0 0 471.094 46.294 A 116.982 116.982 0 0 0 447.919 35.137 A 128.167 128.167 0 0 0 405.078 28.13 A 145.752 145.752 0 0 0 398.225 28.29 A 120.471 120.471 0 0 0 339.062 46.294 Q 309.961 64.458 293.457 98.15 Q 276.953 131.841 276.953 175.787 A 208.057 208.057 0 0 0 278.993 205.418 A 160.248 160.248 0 0 0 293.457 253.423 A 147.519 147.519 0 0 0 298.922 263.573 A 120.327 120.327 0 0 0 339.063 305.279 A 116.982 116.982 0 0 0 362.238 316.436 A 128.167 128.167 0 0 0 405.078 323.443 A 145.752 145.752 0 0 0 411.931 323.283 A 120.471 120.471 0 0 0 471.094 305.279 Q 500.195 287.115 516.699 253.423 Q 533.203 219.732 533.203 175.787 A 208.057 208.057 0 0 0 531.163 146.155 Z M 322.754 78.716 A 124.832 124.832 0 0 0 295.859 132.15 Q 291.318 150.886 291.035 172.845 A 227.683 227.683 0 0 0 291.016 175.787 A 187.462 187.462 0 0 0 295.295 217.012 Q 301.975 246.66 319.081 268.415 A 117.445 117.445 0 0 0 322.754 272.857 Q 354.492 309.38 405.078 309.38 A 113.732 113.732 0 0 0 446.887 301.946 A 103.054 103.054 0 0 0 487.402 272.857 A 124.832 124.832 0 0 0 514.298 219.423 Q 518.838 200.687 519.122 178.729 A 227.683 227.683 0 0 0 519.141 175.787 A 187.462 187.462 0 0 0 514.861 134.562 Q 508.182 104.913 491.075 83.158 A 117.445 117.445 0 0 0 487.402 78.716 Q 455.664 42.193 405.078 42.193 A 113.732 113.732 0 0 0 363.269 49.627 A 103.054 103.054 0 0 0 322.754 78.716 Z M 500.159 133.607 A 110.633 110.633 0 0 0 477.441 88.677 A 89.314 89.314 0 0 0 440.943 62.461 A 100.018 100.018 0 0 0 405.078 56.255 A 118.061 118.061 0 0 0 398.109 56.458 A 89.406 89.406 0 0 0 332.715 88.677 Q 305.078 121.099 305.078 175.787 A 209.387 209.387 0 0 0 305.16 181.669 Q 305.712 201.321 309.997 217.966 A 110.633 110.633 0 0 0 332.715 262.896 A 89.314 89.314 0 0 0 369.213 289.112 A 100.018 100.018 0 0 0 405.078 295.318 A 118.061 118.061 0 0 0 412.047 295.115 A 89.406 89.406 0 0 0 477.441 262.896 Q 505.078 230.474 505.078 175.787 A 209.387 209.387 0 0 0 504.996 169.904 Q 504.444 150.252 500.159 133.607 Z M 342.676 98.541 Q 319.141 126.763 319.141 175.787 A 164.886 164.886 0 0 0 321.914 206.991 Q 325.396 225.042 333.249 239.23 A 88.141 88.141 0 0 0 342.676 253.033 A 76.017 76.017 0 0 0 397.925 281.007 A 101.43 101.43 0 0 0 405.078 281.255 A 86.566 86.566 0 0 0 435.144 276.232 A 75.662 75.662 0 0 0 467.48 253.033 Q 491.016 224.81 491.016 175.787 A 164.886 164.886 0 0 0 488.243 144.582 Q 484.761 126.531 476.907 112.343 A 88.141 88.141 0 0 0 467.48 98.541 A 76.017 76.017 0 0 0 412.231 70.566 A 101.43 101.43 0 0 0 405.078 70.318 A 86.566 86.566 0 0 0 375.013 75.341 A 75.662 75.662 0 0 0 342.676 98.541 Z M 471.786 136.337 A 80.941 80.941 0 0 0 457.52 108.501 A 62.154 62.154 0 0 0 429.657 88.361 A 72.756 72.756 0 0 0 405.078 84.38 A 85.001 85.001 0 0 0 398.513 84.629 A 62.677 62.677 0 0 0 352.637 108.501 A 75.369 75.369 0 0 0 343.181 123.706 Q 333.203 144.857 333.203 175.787 A 172.164 172.164 0 0 0 333.72 189.364 Q 334.838 203.483 338.37 215.237 A 80.941 80.941 0 0 0 352.637 243.072 A 62.154 62.154 0 0 0 380.5 263.212 A 72.756 72.756 0 0 0 405.078 267.193 A 85.001 85.001 0 0 0 411.643 266.944 A 62.677 62.677 0 0 0 457.52 243.072 A 75.369 75.369 0 0 0 466.975 227.868 Q 476.953 206.716 476.953 175.787 A 172.164 172.164 0 0 0 476.436 162.209 Q 475.318 148.09 471.786 136.337 Z M 225.391 225.005 L 0.391 225.005 L 0.391 210.943 L 225.391 210.943 L 225.391 225.005 Z M 225.391 253.13 L 0.391 253.13 L 0.391 239.068 L 225.391 239.068 L 225.391 253.13 Z M 225.391 281.255 L 0.391 281.255 L 0.391 267.193 L 225.391 267.193 L 225.391 281.255 Z M 0 203.912 L 87.695 14.263 L 103.906 14.068 L 16.406 203.912 L 0 203.912 Z M 31.836 203.912 L 119.727 14.263 L 135.352 14.263 L 48.242 203.912 L 31.836 203.912 Z M 64.453 203.912 L 151.172 14.263 L 167.188 14.263 L 80.859 203.912 L 64.453 203.912 Z M 98.242 203.912 L 183.203 14.263 L 199.414 14.068 L 114.648 203.912 L 98.242 203.912 Z M 362.598 118.365 A 65.746 65.746 0 0 0 352.252 138.731 Q 349.311 147.973 348.105 159.205 A 155.48 155.48 0 0 0 347.266 175.787 A 147.056 147.056 0 0 0 348.763 197.508 Q 352.057 219.512 362.598 233.208 A 49.378 49.378 0 0 0 398.476 252.819 A 68.373 68.373 0 0 0 405.078 253.13 A 59.236 59.236 0 0 0 424.309 250.151 A 48.787 48.787 0 0 0 447.559 233.208 A 65.746 65.746 0 0 0 457.904 212.843 Q 460.845 203.6 462.052 192.369 A 155.48 155.48 0 0 0 462.891 175.787 A 147.056 147.056 0 0 0 461.393 154.066 Q 458.099 132.061 447.559 118.365 A 49.378 49.378 0 0 0 411.681 98.754 A 68.373 68.373 0 0 0 405.078 98.443 A 59.236 59.236 0 0 0 385.848 101.422 A 48.787 48.787 0 0 0 362.598 118.365 Z M 726.367 56.255 L 584.57 56.255 L 584.57 42.193 L 726.367 42.193 L 726.367 56.255 Z M 726.367 28.13 L 584.57 28.13 L 584.57 14.068 L 726.367 14.068 L 726.367 28.13 Z M 175.977 148.052 L 175.977 204.107 L 161.914 204.107 L 161.914 148.052 L 175.977 148.052 Z M 204.102 148.052 L 204.102 204.107 L 190.039 204.107 L 190.039 148.052 L 204.102 148.052 Z M 175.977 288.482 L 175.977 337.505 L 161.914 337.505 L 161.914 288.482 L 175.977 288.482 Z M 204.102 288.482 L 204.102 337.505 L 190.039 337.505 L 190.039 288.482 L 204.102 288.482 Z" vector-effect="non-scaling-stroke" class="DksQYiHn_0"></path></g><style data-made-with="vivus-instant">.DksQYiHn_0{stroke-dasharray:12691 12693;stroke-dashoffset:12692;animation:DksQYiHn_draw_0 30400ms linear 0ms infinite,DksQYiHn_fade 30400ms linear 0ms infinite;}@keyframes DksQYiHn_draw{100%{stroke-dashoffset:0;}}@keyframes DksQYiHn_fade{0%{stroke-opacity:1;}98.6842105263158%{stroke-opacity:1;}100%{stroke-opacity:0;}}@keyframes DksQYiHn_draw_0{0%{stroke-dashoffset: 12692}65.78947368421053%{ stroke-dashoffset: 0;}100%{ stroke-dashoffset: 0;}}</style></svg>