<svg width="839.457" height="351.573" viewBox="0 0 839.457 351.573" xmlns="http://www.w3.org/2000/svg" style=""><g id="svgGroup" stroke-linecap="round" fill-rule="evenodd" font-size="9pt" stroke="#000" stroke-width="0.25mm" fill="none" style="stroke:#8e003e;stroke-width:0.75mm;fill:none"><path stroke-width="4" color="#8e003e" d="M 595.313 70.318 L 809.18 70.318 L 809.18 84.38 L 665.625 84.38 L 665.625 220.708 L 651.563 220.708 L 651.563 84.38 L 637.5 84.38 L 637.5 220.708 L 623.438 220.708 L 623.438 84.38 L 609.375 84.38 L 609.375 220.708 L 595.313 220.708 L 595.313 70.318 Z M 675 139.849 L 675 125.396 Q 689.879 123.27 709.36 122.797 A 475.45 475.45 0 0 1 720.898 122.662 A 125.668 125.668 0 0 1 765.625 130.767 A 122.76 122.76 0 0 1 803.5 153.214 A 113.628 113.628 0 0 1 803.516 153.228 Q 819.922 167.583 829.688 189.068 A 110.546 110.546 0 0 1 839.405 232.223 A 128.04 128.04 0 0 1 839.453 235.748 A 104.379 104.379 0 0 1 828.613 282.916 Q 817.773 304.693 799.219 319.634 A 133.802 133.802 0 0 1 767.706 338.366 A 159.892 159.892 0 0 1 755.566 342.974 A 165.555 165.555 0 0 1 705.848 351.34 A 186.506 186.506 0 0 1 702.344 351.373 A 205.868 205.868 0 0 1 652.672 345.534 A 183.683 183.683 0 0 1 634.277 339.947 A 161.068 161.068 0 0 1 602.036 324.219 A 133.382 133.382 0 0 1 581.445 308.013 L 592.773 299.615 A 124.555 124.555 0 0 0 623.645 320.442 A 156.444 156.444 0 0 0 640.723 327.447 A 183.081 183.081 0 0 0 690.12 336.963 A 213.047 213.047 0 0 0 702.344 337.31 A 155.115 155.115 0 0 0 745.131 331.5 A 144.929 144.929 0 0 0 750.098 329.986 A 134.05 134.05 0 0 0 775.379 318.92 A 113.307 113.307 0 0 0 789.258 309.576 Q 805.859 296.49 815.625 277.349 Q 825.391 258.208 825.391 235.748 A 96.406 96.406 0 0 0 816.993 195.616 A 94.301 94.301 0 0 0 816.406 194.341 A 96.4 96.4 0 0 0 801.486 171.345 A 86.632 86.632 0 0 0 792.578 162.603 Q 777.734 150.005 758.887 142.974 A 110.065 110.065 0 0 0 720.117 135.943 Q 709.961 135.943 703.125 136.431 Q 696.743 136.887 688.829 138.024 A 286.333 286.333 0 0 0 687.695 138.189 A 577.068 577.068 0 0 1 683.679 138.769 Q 678.212 139.537 675.15 139.835 A 77.919 77.919 0 0 1 675 139.849 Z M 250.618 205.403 A 188.868 188.868 0 0 0 269.141 267.583 A 180.016 180.016 0 0 0 273.424 275.567 A 148.491 148.491 0 0 0 325 329.693 A 144.802 144.802 0 0 0 349.897 341.921 A 155.27 155.27 0 0 0 405.078 351.568 A 177.971 177.971 0 0 0 410.609 351.482 A 148.473 148.473 0 0 0 485.156 329.693 A 143.799 143.799 0 0 0 510.603 309.802 A 158.862 158.862 0 0 0 541.016 267.583 A 181.985 181.985 0 0 0 555.637 227.197 A 223.371 223.371 0 0 0 561.328 175.787 A 238.472 238.472 0 0 0 559.538 146.17 A 188.868 188.868 0 0 0 541.016 83.99 A 180.016 180.016 0 0 0 536.733 76.007 A 148.491 148.491 0 0 0 485.156 21.88 A 144.802 144.802 0 0 0 460.259 9.652 A 155.27 155.27 0 0 0 405.078 0.005 A 177.971 177.971 0 0 0 399.547 0.091 A 148.473 148.473 0 0 0 325 21.88 A 143.799 143.799 0 0 0 299.554 41.772 A 158.862 158.862 0 0 0 269.141 83.99 A 181.985 181.985 0 0 0 254.519 124.377 A 223.371 223.371 0 0 0 248.828 175.787 A 238.472 238.472 0 0 0 250.618 205.403 Z M 273.633 109.673 A 189.216 189.216 0 0 0 263.562 158.251 A 225.257 225.257 0 0 0 262.891 175.787 A 208.487 208.487 0 0 0 267.407 219.881 A 179.699 179.699 0 0 0 273.633 241.9 A 165.609 165.609 0 0 0 288.044 272.678 A 135.216 135.216 0 0 0 303.223 293.169 A 132.941 132.941 0 0 0 348.34 325.787 A 137.203 137.203 0 0 0 403.163 337.494 A 157.418 157.418 0 0 0 405.078 337.505 A 139.372 139.372 0 0 0 453.505 329.163 A 132.563 132.563 0 0 0 461.816 325.787 A 132.941 132.941 0 0 0 506.934 293.169 A 140.849 140.849 0 0 0 528.914 260.171 A 175.972 175.972 0 0 0 536.523 241.9 A 189.216 189.216 0 0 0 546.594 193.322 A 225.257 225.257 0 0 0 547.266 175.787 A 208.487 208.487 0 0 0 542.749 131.692 A 179.699 179.699 0 0 0 536.523 109.673 A 165.609 165.609 0 0 0 522.112 78.895 A 135.216 135.216 0 0 0 506.934 58.404 A 132.941 132.941 0 0 0 461.816 25.787 A 137.203 137.203 0 0 0 406.993 14.079 A 157.418 157.418 0 0 0 405.078 14.068 A 139.372 139.372 0 0 0 356.652 22.411 A 132.563 132.563 0 0 0 348.34 25.787 A 132.941 132.941 0 0 0 303.223 58.404 A 140.849 140.849 0 0 0 281.242 91.402 A 175.972 175.972 0 0 0 273.633 109.673 Z M 531.163 146.155 A 160.248 160.248 0 0 0 516.699 98.15 A 147.519 147.519 0 0 0 511.234 88 A 120.327 120.327 0 0 0 471.094 46.294 A 116.982 116.982 0 0 0 447.919 35.137 A 128.167 128.167 0 0 0 405.078 28.13 A 145.752 145.752 0 0 0 398.225 28.29 A 120.471 120.471 0 0 0 339.062 46.294 Q 309.961 64.458 293.457 98.15 Q 276.953 131.841 276.953 175.787 A 208.057 208.057 0 0 0 278.993 205.418 A 160.248 160.248 0 0 0 293.457 253.423 A 147.519 147.519 0 0 0 298.922 263.573 A 120.327 120.327 0 0 0 339.063 305.279 A 116.982 116.982 0 0 0 362.238 316.436 A 128.167 128.167 0 0 0 405.078 323.443 A 145.752 145.752 0 0 0 411.931 323.283 A 120.471 120.471 0 0 0 471.094 305.279 Q 500.195 287.115 516.699 253.423 Q 533.203 219.732 533.203 175.787 A 208.057 208.057 0 0 0 531.163 146.155 Z M 675 166.802 L 675 152.544 A 434.465 434.465 0 0 1 696.631 150.64 A 319.024 319.024 0 0 1 716.211 150.005 A 107.422 107.422 0 0 1 752.814 156.158 A 100.711 100.711 0 0 1 763.965 160.943 A 86.723 86.723 0 0 1 798.535 191.607 Q 811.328 211.333 811.328 235.748 A 76.37 76.37 0 0 1 796.582 281.939 A 91.533 91.533 0 0 1 761.674 310.638 A 109.699 109.699 0 0 1 757.129 312.701 A 132.118 132.118 0 0 1 717.272 322.568 A 160.719 160.719 0 0 1 702.344 323.248 A 185.37 185.37 0 0 1 664.717 319.547 A 160.313 160.313 0 0 1 646.484 314.654 A 135.59 135.59 0 0 1 621.796 303.731 A 107.762 107.762 0 0 1 603.32 290.435 L 614.258 281.646 Q 629.883 294.927 652.832 302.056 A 159.829 159.829 0 0 0 689.288 308.74 A 188.392 188.392 0 0 0 702.344 309.185 Q 742.773 309.185 770.02 289.166 Q 796.546 269.675 797.247 237.503 A 80.604 80.604 0 0 0 797.266 235.748 Q 797.266 213.091 785.645 196.294 Q 774.023 179.498 755.859 171.49 A 95.114 95.114 0 0 0 724.554 163.812 A 113.719 113.719 0 0 0 715.82 163.482 A 251.846 251.846 0 0 0 687.522 165.016 A 213.917 213.917 0 0 0 675 166.802 Z M 322.754 78.716 A 124.832 124.832 0 0 0 295.859 132.15 Q 291.318 150.886 291.035 172.845 A 227.683 227.683 0 0 0 291.016 175.787 A 187.462 187.462 0 0 0 295.295 217.012 Q 301.975 246.66 319.081 268.415 A 117.445 117.445 0 0 0 322.754 272.857 Q 354.492 309.38 405.078 309.38 A 113.732 113.732 0 0 0 446.887 301.946 A 103.054 103.054 0 0 0 487.402 272.857 A 124.832 124.832 0 0 0 514.298 219.423 Q 518.838 200.687 519.122 178.729 A 227.683 227.683 0 0 0 519.141 175.787 A 187.462 187.462 0 0 0 514.861 134.562 Q 508.182 104.913 491.075 83.158 A 117.445 117.445 0 0 0 487.402 78.716 Q 455.664 42.193 405.078 42.193 A 113.732 113.732 0 0 0 363.269 49.627 A 103.054 103.054 0 0 0 322.754 78.716 Z M 500.159 133.607 A 110.633 110.633 0 0 0 477.441 88.677 A 89.314 89.314 0 0 0 440.943 62.461 A 100.018 100.018 0 0 0 405.078 56.255 A 118.061 118.061 0 0 0 398.109 56.458 A 89.406 89.406 0 0 0 332.715 88.677 Q 305.078 121.099 305.078 175.787 A 209.387 209.387 0 0 0 305.16 181.669 Q 305.712 201.321 309.997 217.966 A 110.633 110.633 0 0 0 332.715 262.896 A 89.314 89.314 0 0 0 369.213 289.112 A 100.018 100.018 0 0 0 405.078 295.318 A 118.061 118.061 0 0 0 412.047 295.115 A 89.406 89.406 0 0 0 477.441 262.896 Q 505.078 230.474 505.078 175.787 A 209.387 209.387 0 0 0 504.996 169.904 Q 504.444 150.252 500.159 133.607 Z M 675 194.732 L 675 179.888 Q 697.282 177.171 710.994 176.974 A 145.662 145.662 0 0 1 713.086 176.958 A 90.807 90.807 0 0 1 737.812 180.187 A 72.986 72.986 0 0 1 762.793 192.681 A 50.39 50.39 0 0 1 782.923 229.498 A 68.159 68.159 0 0 1 783.203 235.748 Q 783.203 263.287 760.156 279.205 A 87.042 87.042 0 0 1 728.664 292.494 Q 716.472 295.123 702.344 295.123 A 177.726 177.726 0 0 1 672.35 292.754 Q 643.816 287.86 625.391 272.857 L 636.523 264.263 Q 654.281 277.096 683.324 280.125 A 183.64 183.64 0 0 0 702.344 281.06 Q 731.25 281.06 750.195 269.146 A 43.504 43.504 0 0 0 761.554 259.106 Q 768.785 249.801 769.124 237.014 A 47.782 47.782 0 0 0 769.141 235.748 A 46.404 46.404 0 0 0 766.857 220.827 A 37.572 37.572 0 0 0 752.734 202.056 A 62.078 62.078 0 0 0 725.518 191.174 A 82.461 82.461 0 0 0 712.891 190.24 A 161.358 161.358 0 0 0 688.465 192.174 A 196.364 196.364 0 0 0 675 194.732 Z M 342.676 98.541 Q 319.141 126.763 319.141 175.787 A 164.886 164.886 0 0 0 321.914 206.991 Q 325.396 225.042 333.249 239.23 A 88.141 88.141 0 0 0 342.676 253.033 A 76.017 76.017 0 0 0 397.925 281.007 A 101.43 101.43 0 0 0 405.078 281.255 A 86.566 86.566 0 0 0 435.144 276.232 A 75.662 75.662 0 0 0 467.48 253.033 Q 491.016 224.81 491.016 175.787 A 164.886 164.886 0 0 0 488.243 144.582 Q 484.761 126.531 476.907 112.343 A 88.141 88.141 0 0 0 467.48 98.541 A 76.017 76.017 0 0 0 412.231 70.566 A 101.43 101.43 0 0 0 405.078 70.318 A 86.566 86.566 0 0 0 375.013 75.341 A 75.662 75.662 0 0 0 342.676 98.541 Z M 471.786 136.337 A 80.941 80.941 0 0 0 457.52 108.501 A 62.154 62.154 0 0 0 429.657 88.361 A 72.756 72.756 0 0 0 405.078 84.38 A 85.001 85.001 0 0 0 398.513 84.629 A 62.677 62.677 0 0 0 352.637 108.501 A 75.369 75.369 0 0 0 343.181 123.706 Q 333.203 144.857 333.203 175.787 A 172.164 172.164 0 0 0 333.72 189.364 Q 334.838 203.483 338.37 215.237 A 80.941 80.941 0 0 0 352.637 243.072 A 62.154 62.154 0 0 0 380.5 263.212 A 72.756 72.756 0 0 0 405.078 267.193 A 85.001 85.001 0 0 0 411.643 266.944 A 62.677 62.677 0 0 0 457.52 243.072 A 75.369 75.369 0 0 0 466.975 227.868 Q 476.953 206.716 476.953 175.787 A 172.164 172.164 0 0 0 476.436 162.209 Q 475.318 148.09 471.786 136.337 Z M 225.391 225.005 L 0.391 225.005 L 0.391 210.943 L 225.391 210.943 L 225.391 225.005 Z M 225.391 253.13 L 0.391 253.13 L 0.391 239.068 L 225.391 239.068 L 225.391 253.13 Z M 225.391 281.255 L 0.391 281.255 L 0.391 267.193 L 225.391 267.193 L 225.391 281.255 Z M 595.313 42.193 L 809.18 42.193 L 809.18 56.255 L 595.313 56.255 L 595.313 42.193 Z M 595.313 14.068 L 809.18 14.068 L 809.18 28.13 L 595.313 28.13 L 595.313 14.068 Z M 0 203.912 L 87.695 14.263 L 103.906 14.068 L 16.406 203.912 L 0 203.912 Z M 31.836 203.912 L 119.727 14.263 L 135.352 14.263 L 48.242 203.912 L 31.836 203.912 Z M 64.453 203.912 L 151.172 14.263 L 167.188 14.263 L 80.859 203.912 L 64.453 203.912 Z M 98.242 203.912 L 183.203 14.263 L 199.414 14.068 L 114.648 203.912 L 98.242 203.912 Z M 362.598 118.365 A 65.746 65.746 0 0 0 352.252 138.731 Q 349.311 147.973 348.105 159.205 A 155.48 155.48 0 0 0 347.266 175.787 A 147.056 147.056 0 0 0 348.763 197.508 Q 352.057 219.512 362.598 233.208 A 49.378 49.378 0 0 0 398.476 252.819 A 68.373 68.373 0 0 0 405.078 253.13 A 59.236 59.236 0 0 0 424.309 250.151 A 48.787 48.787 0 0 0 447.559 233.208 A 65.746 65.746 0 0 0 457.904 212.843 Q 460.845 203.6 462.052 192.369 A 155.48 155.48 0 0 0 462.891 175.787 A 147.056 147.056 0 0 0 461.393 154.066 Q 458.099 132.061 447.559 118.365 A 49.378 49.378 0 0 0 411.681 98.754 A 68.373 68.373 0 0 0 405.078 98.443 A 59.236 59.236 0 0 0 385.848 101.422 A 48.787 48.787 0 0 0 362.598 118.365 Z M 675 221.88 L 675 207.818 A 145.996 145.996 0 0 1 709.375 203.716 A 91.442 91.442 0 0 1 721.041 204.426 A 68.054 68.054 0 0 1 731.738 206.646 A 35.699 35.699 0 0 1 748.34 216.998 A 25.709 25.709 0 0 1 754.831 231.554 A 34.644 34.644 0 0 1 755.078 235.748 A 25.855 25.855 0 0 1 752.502 247.444 Q 748.915 254.638 740.332 259.185 A 61.164 61.164 0 0 1 725.803 264.526 Q 715.417 266.998 702.344 266.998 A 179.494 179.494 0 0 1 682.405 265.965 Q 661.332 263.602 648.186 255.835 A 52.943 52.943 0 0 1 647.266 255.279 L 658.594 246.685 A 43.449 43.449 0 0 0 667.048 249.671 Q 675.785 251.89 688.951 252.6 A 249.442 249.442 0 0 0 702.344 252.935 A 131.355 131.355 0 0 0 714.993 252.38 Q 741.016 249.847 741.016 235.748 A 17.177 17.177 0 0 0 739.905 229.42 Q 737.857 224.207 732.031 221.294 Q 724.646 217.602 713.961 216.945 A 77.919 77.919 0 0 0 709.18 216.802 A 147.863 147.863 0 0 0 696.027 217.349 Q 689.778 217.909 684.522 219.042 A 59.295 59.295 0 0 0 675 221.88 Z M 175.977 148.052 L 175.977 204.107 L 161.914 204.107 L 161.914 148.052 L 175.977 148.052 Z M 204.102 148.052 L 204.102 204.107 L 190.039 204.107 L 190.039 148.052 L 204.102 148.052 Z M 175.977 288.482 L 175.977 337.505 L 161.914 337.505 L 161.914 288.482 L 175.977 288.482 Z M 204.102 288.482 L 204.102 337.505 L 190.039 337.505 L 190.039 288.482 L 204.102 288.482 Z" vector-effect="non-scaling-stroke" class="QHHioDrj_0"></path></g><style data-made-with="vivus-instant">.QHHioDrj_0{stroke-dasharray:14937 14939;stroke-dashoffset:14938;animation:QHHioDrj_draw_0 30400ms linear 0ms infinite,QHHioDrj_fade 30400ms linear 0ms infinite;}@keyframes QHHioDrj_draw{100%{stroke-dashoffset:0;}}@keyframes QHHioDrj_fade{0%{stroke-opacity:1;}98.6842105263158%{stroke-opacity:1;}100%{stroke-opacity:0;}}@keyframes QHHioDrj_draw_0{0%{stroke-dashoffset: 14938}65.78947368421053%{ stroke-dashoffset: 0;}100%{ stroke-dashoffset: 0;}}</style></svg>