<svg width="717.39" height="351.567" viewBox="0 0 717.39 351.567" xmlns="http://www.w3.org/2000/svg" style=""><g id="svgGroup" stroke-linecap="round" fill-rule="evenodd" font-size="9pt" stroke="#000" stroke-width="0.25mm" fill="none" style="stroke:#633615;stroke-width:0.75mm;fill:none"><path stroke-width="4" color="#633615" d="M 290.625 84.377 L 247.266 84.377 L 247.266 70.315 L 389.063 70.315 L 389.063 337.502 L 375 337.502 L 375 84.377 L 360.938 84.377 L 360.938 337.502 L 346.875 337.502 L 346.875 84.377 L 332.813 84.377 L 332.813 337.502 L 318.75 337.502 L 318.75 84.377 L 304.688 84.377 L 304.688 337.502 L 290.625 337.502 L 290.625 84.377 Z M 592.969 225.002 L 540.82 225.002 Q 517.188 225.002 495.41 216.897 A 126.026 126.026 0 0 1 458.246 195.548 A 120.425 120.425 0 0 1 456.934 194.436 A 103.099 103.099 0 0 1 432.366 162.887 A 120.318 120.318 0 0 1 430.273 158.596 A 108.831 108.831 0 0 1 420.351 115.051 A 125.74 125.74 0 0 1 420.313 111.916 A 104.055 104.055 0 0 1 437.012 54.104 A 112.751 112.751 0 0 1 481.836 14.162 A 134.095 134.095 0 0 1 537.464 0.127 A 157.59 157.59 0 0 1 543.75 0.002 L 590.039 0.002 A 145.438 145.438 0 0 1 638.044 7.868 A 138.833 138.833 0 0 1 639.551 8.401 A 131.489 131.489 0 0 1 668.735 23.041 A 117.19 117.19 0 0 1 680.078 31.741 Q 697.266 46.682 707.324 68.459 A 110.735 110.735 0 0 1 717.373 114.044 A 127.342 127.342 0 0 1 717.383 115.627 A 103.871 103.871 0 0 1 701.953 171.291 L 691.797 160.744 A 91.945 91.945 0 0 0 703.32 115.627 A 99.255 99.255 0 0 0 697.105 80.186 A 92.273 92.273 0 0 0 687.988 62.307 A 99.989 99.989 0 0 0 646.973 26.467 Q 621.289 14.065 590.039 14.065 L 543.75 14.065 A 124.489 124.489 0 0 0 502.837 20.738 A 118.761 118.761 0 0 0 501.27 21.291 A 114.707 114.707 0 0 0 476.235 33.813 A 101.515 101.515 0 0 0 466.504 41.213 A 92.817 92.817 0 0 0 443.066 72.268 A 91.48 91.48 0 0 0 434.375 111.916 A 94.227 94.227 0 0 0 442.443 150.832 A 92.034 92.034 0 0 0 443.555 153.225 A 95.428 95.428 0 0 0 458.843 176.157 A 86.021 86.021 0 0 0 467.773 184.67 A 114.28 114.28 0 0 0 502.051 204.006 Q 521.289 210.94 541.602 210.94 L 593.164 210.94 Q 608.053 210.94 618.668 216.038 A 41.877 41.877 0 0 1 621.582 217.58 A 23.238 23.238 0 0 1 629.059 224.248 Q 633.008 229.855 633.008 237.893 A 30.99 30.99 0 0 1 631.715 247.098 A 23.324 23.324 0 0 1 622.07 259.866 A 41.019 41.019 0 0 1 608.908 265.526 Q 603.406 266.878 596.967 267.131 A 76.844 76.844 0 0 1 593.945 267.19 L 547.656 267.19 A 81.728 81.728 0 0 1 534.832 266.244 Q 524.234 264.558 516.602 259.866 A 23.78 23.78 0 0 1 505.107 242.62 A 34.677 34.677 0 0 1 504.687 237.112 Q 504.688 229.935 506.332 226.047 A 11.307 11.307 0 0 1 506.836 225.002 L 520.313 227.932 Q 519.029 230.178 518.8 234.927 A 45.394 45.394 0 0 0 518.75 237.112 A 17.021 17.021 0 0 0 519.421 242.054 Q 521.011 247.306 526.367 249.709 Q 533.827 253.057 547.094 253.126 A 107.884 107.884 0 0 0 547.656 253.127 L 593.945 253.127 A 61.358 61.358 0 0 0 602.441 252.592 Q 612.115 251.231 616.119 246.416 A 12.883 12.883 0 0 0 618.945 237.893 A 10.262 10.262 0 0 0 612.653 228.326 Q 607.63 225.755 598.6 225.173 A 87.717 87.717 0 0 0 592.969 225.002 Z M 544.727 126.565 L 596.875 126.565 Q 620.508 126.565 642.285 134.67 Q 664.063 142.776 680.762 157.034 A 103.845 103.845 0 0 1 706.473 190.423 A 119.583 119.583 0 0 1 707.422 192.385 Q 717.383 213.479 717.383 237.893 A 112.708 112.708 0 0 1 710.613 277.324 A 104.287 104.287 0 0 1 700.684 297.268 Q 683.984 323.44 655.957 337.502 A 133.915 133.915 0 0 1 602.478 351.338 A 159.028 159.028 0 0 1 593.945 351.565 L 547.656 351.565 A 147.109 147.109 0 0 1 503.361 344.981 A 138.454 138.454 0 0 1 498.242 343.264 A 134.36 134.36 0 0 1 468.503 328.453 A 119.791 119.791 0 0 1 457.715 320.315 A 104.812 104.812 0 0 1 430.371 284.084 A 109.003 109.003 0 0 1 420.352 240.283 A 126.419 126.419 0 0 1 420.312 237.112 A 103.871 103.871 0 0 1 435.742 181.448 L 445.898 191.994 A 91.945 91.945 0 0 0 434.375 237.112 A 99.099 99.099 0 0 0 439.78 270.222 A 90.035 90.035 0 0 0 449.707 290.139 Q 465.039 313.284 490.723 325.393 A 128.015 128.015 0 0 0 536.104 337.074 A 153.685 153.685 0 0 0 547.656 337.502 L 593.945 337.502 A 128.466 128.466 0 0 0 631.139 332.249 A 115.057 115.057 0 0 0 648.828 325.295 A 97.69 97.69 0 0 0 688.477 290.139 A 93.059 93.059 0 0 0 703.23 242.432 A 112.811 112.811 0 0 0 703.32 237.893 A 89.057 89.057 0 0 0 694.141 197.854 A 93.773 93.773 0 0 0 676.221 172.677 A 87.846 87.846 0 0 0 669.922 166.994 A 117.112 117.112 0 0 0 635.795 147.714 A 131.076 131.076 0 0 0 635.645 147.659 A 114.358 114.358 0 0 0 596.094 140.627 L 544.531 140.627 A 81.433 81.433 0 0 1 530.237 139.488 Q 504.688 134.908 504.688 111.916 A 23.716 23.716 0 0 1 507.05 101.221 Q 509.816 95.652 515.82 91.702 A 42.79 42.79 0 0 1 530.137 85.779 Q 536.401 84.377 543.75 84.377 L 590.039 84.377 A 75.379 75.379 0 0 1 603.017 85.431 Q 613.395 87.246 620.996 92.19 Q 633.008 100.002 633.008 115.627 A 32.074 32.074 0 0 1 632.779 119.595 Q 632.535 121.546 632.031 123.15 A 12.837 12.837 0 0 1 630.664 126.174 L 617.578 123.44 Q 618.902 121.548 618.944 115.992 A 48.659 48.659 0 0 0 618.945 115.627 A 14.229 14.229 0 0 0 610.423 102.03 Q 604.09 98.86 593.049 98.489 A 89.66 89.66 0 0 0 590.039 98.44 L 543.75 98.44 Q 535.158 98.44 528.878 100.689 A 28.491 28.491 0 0 0 525.879 101.955 Q 518.75 105.471 518.75 111.916 A 17.293 17.293 0 0 0 519.276 116.341 A 10.48 10.48 0 0 0 525.586 123.635 Q 532.422 126.565 544.727 126.565 Z M 594.727 196.877 L 541.602 196.877 A 101.729 101.729 0 0 1 504.247 190.188 A 93.689 93.689 0 0 1 475.684 172.463 A 81.184 81.184 0 0 1 454.625 143.694 A 80.398 80.398 0 0 1 448.438 111.916 A 79.228 79.228 0 0 1 455.343 78.501 A 77.704 77.704 0 0 1 476.074 51.662 A 98.129 98.129 0 0 1 532.734 28.593 A 127.911 127.911 0 0 1 543.75 28.127 L 590.039 28.127 A 122.774 122.774 0 0 1 622.288 32.241 A 107.24 107.24 0 0 1 639.844 38.674 Q 662.305 49.221 675.781 69.436 A 80.643 80.643 0 0 1 689.205 112.403 A 98.118 98.118 0 0 1 689.258 115.627 A 77.952 77.952 0 0 1 681.055 150.979 L 669.531 143.948 A 72.36 72.36 0 0 0 675.195 115.627 A 73.665 73.665 0 0 0 670.87 89.883 A 64.271 64.271 0 0 0 650.781 62.209 A 87.353 87.353 0 0 0 607.458 43.441 A 117.308 117.308 0 0 0 590.039 42.19 L 543.75 42.19 A 101.157 101.157 0 0 0 515.304 46.024 A 81.55 81.55 0 0 0 485.937 61.526 A 61.597 61.597 0 0 0 462.706 106.197 A 78.177 78.177 0 0 0 462.5 111.916 A 72.876 72.876 0 0 0 464.992 131.256 A 63.651 63.651 0 0 0 469.043 142.092 A 64.72 64.72 0 0 0 481.384 159.762 A 60.347 60.347 0 0 0 486.621 164.455 Q 497.656 173.244 511.914 178.03 Q 526.172 182.815 541.992 182.815 L 594.922 182.815 A 85.75 85.75 0 0 1 617.03 185.591 A 76.066 76.066 0 0 1 627.637 189.26 Q 642.578 195.705 651.855 208.498 A 48.771 48.771 0 0 1 661.133 237.86 A 59.717 59.717 0 0 1 661.133 237.893 A 59.989 59.989 0 0 1 658.227 257.01 A 48.814 48.814 0 0 1 641.992 279.983 Q 622.852 295.315 593.945 295.315 L 547.656 295.315 A 100.923 100.923 0 0 1 524.466 292.784 A 72.898 72.898 0 0 1 496.777 279.983 Q 476.563 264.651 476.563 237.112 A 57.811 57.811 0 0 1 480.664 215.627 L 493.75 220.901 A 35.538 35.538 0 0 0 491.141 230.008 A 47.012 47.012 0 0 0 490.625 237.112 Q 490.625 258.401 506.738 269.827 A 59.756 59.756 0 0 0 528.274 279.219 Q 536.63 281.124 546.344 281.244 A 106.21 106.21 0 0 0 547.656 281.252 L 593.945 281.252 Q 616.992 281.252 632.031 269.827 Q 647.07 258.401 647.07 237.893 Q 647.07 219.697 632.927 208.798 A 45.303 45.303 0 0 0 631.738 207.912 A 58.192 58.192 0 0 0 605.483 197.611 A 76.501 76.501 0 0 0 594.727 196.877 Z M 595.703 168.752 L 542.773 168.752 A 83.926 83.926 0 0 1 519.384 165.624 A 68.042 68.042 0 0 1 495.801 153.518 A 49.166 49.166 0 0 1 476.793 117.551 A 67.574 67.574 0 0 1 476.563 111.916 A 52.919 52.919 0 0 1 480.397 91.452 A 49.354 49.354 0 0 1 495.898 71.487 A 70.275 70.275 0 0 1 529.249 57.327 A 94.513 94.513 0 0 1 543.75 56.252 L 590.039 56.252 A 96.155 96.155 0 0 1 613.735 59.033 A 72.102 72.102 0 0 1 640.82 72.17 A 51.197 51.197 0 0 1 660.881 109.64 A 69.742 69.742 0 0 1 661.133 115.627 A 54.688 54.688 0 0 1 659.897 127.472 A 45.196 45.196 0 0 1 657.227 135.744 L 644.141 130.471 A 25.374 25.374 0 0 0 646.143 124.746 Q 646.781 121.951 646.98 118.689 A 50.269 50.269 0 0 0 647.07 115.627 A 45.498 45.498 0 0 0 644.695 100.581 A 37.945 37.945 0 0 0 630.859 82.229 Q 614.648 70.315 590.039 70.315 L 543.75 70.315 Q 521.094 70.315 505.859 81.643 A 38.073 38.073 0 0 0 495.181 93.473 Q 490.91 101.05 490.643 110.63 A 46.171 46.171 0 0 0 490.625 111.916 A 45.1 45.1 0 0 0 492.58 125.548 A 35.005 35.005 0 0 0 505.762 143.655 A 56.689 56.689 0 0 0 529.852 153.612 A 76.782 76.782 0 0 0 542.969 154.69 L 596.094 154.69 A 101.16 101.16 0 0 1 634.595 161.859 A 94.609 94.609 0 0 1 661.914 179.006 Q 689.258 203.323 689.258 237.893 A 84.43 84.43 0 0 1 684.496 266.563 A 77.048 77.048 0 0 1 676.27 283.01 A 84.169 84.169 0 0 1 641.699 313.088 A 106.36 106.36 0 0 1 602.409 323.161 A 126.946 126.946 0 0 1 593.945 323.44 L 547.656 323.44 A 126.455 126.455 0 0 1 516.144 319.632 A 109.357 109.357 0 0 1 497.852 313.186 A 85.174 85.174 0 0 1 461.914 283.01 Q 448.438 263.088 448.438 237.112 A 77.952 77.952 0 0 1 456.641 201.76 L 468.164 208.791 A 72.36 72.36 0 0 0 462.5 237.112 A 71.991 71.991 0 0 0 465.877 259.499 A 62.951 62.951 0 0 0 474.121 276.077 A 71.177 71.177 0 0 0 504.883 301.077 Q 524.023 309.377 547.656 309.377 L 593.945 309.377 A 101.607 101.607 0 0 0 622.045 305.658 A 80.898 80.898 0 0 0 651.855 289.944 A 63.133 63.133 0 0 0 674.99 243.893 A 86.25 86.25 0 0 0 675.195 237.893 A 65.868 65.868 0 0 0 671.131 214.516 A 60.762 60.762 0 0 0 663.965 200.979 A 70.328 70.328 0 0 0 634.766 176.858 A 92.842 92.842 0 0 0 599.631 168.824 A 107.578 107.578 0 0 0 595.703 168.752 Z M 225.391 225.002 L 0.391 225.002 L 0.391 210.94 L 225.391 210.94 L 225.391 225.002 Z M 225.391 253.127 L 0.391 253.127 L 0.391 239.065 L 225.391 239.065 L 225.391 253.127 Z M 225.391 281.252 L 0.391 281.252 L 0.391 267.19 L 225.391 267.19 L 225.391 281.252 Z M 0 203.909 L 87.695 14.26 L 103.906 14.065 L 16.406 203.909 L 0 203.909 Z M 31.836 203.909 L 119.727 14.26 L 135.352 14.26 L 48.242 203.909 L 31.836 203.909 Z M 64.453 203.909 L 151.172 14.26 L 167.188 14.26 L 80.859 203.909 L 64.453 203.909 Z M 98.242 203.909 L 183.203 14.26 L 199.414 14.065 L 114.648 203.909 L 98.242 203.909 Z M 389.063 56.252 L 247.266 56.252 L 247.266 42.19 L 389.063 42.19 L 389.063 56.252 Z M 389.063 28.127 L 247.266 28.127 L 247.266 14.065 L 389.063 14.065 L 389.063 28.127 Z M 175.977 148.049 L 175.977 204.104 L 161.914 204.104 L 161.914 148.049 L 175.977 148.049 Z M 204.102 148.049 L 204.102 204.104 L 190.039 204.104 L 190.039 148.049 L 204.102 148.049 Z M 175.977 288.479 L 175.977 337.502 L 161.914 337.502 L 161.914 288.479 L 175.977 288.479 Z M 204.102 288.479 L 204.102 337.502 L 190.039 337.502 L 190.039 288.479 L 204.102 288.479 Z" vector-effect="non-scaling-stroke" class="FNRUdkvg_0"></path></g><style data-made-with="vivus-instant">.FNRUdkvg_0{stroke-dasharray:13771 13773;stroke-dashoffset:13772;animation:FNRUdkvg_draw_0 30400ms linear 0ms infinite,FNRUdkvg_fade 30400ms linear 0ms infinite;}@keyframes FNRUdkvg_draw{100%{stroke-dashoffset:0;}}@keyframes FNRUdkvg_fade{0%{stroke-opacity:1;}98.6842105263158%{stroke-opacity:1;}100%{stroke-opacity:0;}}@keyframes FNRUdkvg_draw_0{0%{stroke-dashoffset: 13772}65.78947368421053%{ stroke-dashoffset: 0;}100%{ stroke-dashoffset: 0;}}</style></svg>