<svg width="931.254" height="351.573" viewBox="0 0 931.254 351.573" xmlns="http://www.w3.org/2000/svg" style=""><g id="svgGroup" stroke-linecap="round" fill-rule="evenodd" font-size="9pt" stroke="#000" stroke-width="0.15mm" fill="none" style="stroke:#000;stroke-width:0.60mm;fill:none"><path stroke="red" d="M 13.867 70.318 L 227.734 70.318 L 227.734 84.38 L 84.18 84.38 L 84.18 220.708 L 70.117 220.708 L 70.117 84.38 L 56.055 84.38 L 56.055 220.708 L 41.992 220.708 L 41.992 84.38 L 27.93 84.38 L 27.93 220.708 L 13.867 220.708 L 13.867 70.318 Z M 93.555 139.849 L 93.555 125.396 Q 108.434 123.27 127.915 122.797 A 475.45 475.45 0 0 1 139.453 122.662 A 125.668 125.668 0 0 1 184.18 130.767 A 122.76 122.76 0 0 1 222.054 153.214 A 113.628 113.628 0 0 1 222.07 153.228 Q 238.477 167.583 248.242 189.068 A 110.546 110.546 0 0 1 257.96 232.223 A 128.04 128.04 0 0 1 258.008 235.748 A 104.379 104.379 0 0 1 247.168 282.916 Q 236.328 304.693 217.773 319.634 A 133.802 133.802 0 0 1 186.261 338.366 A 159.892 159.892 0 0 1 174.121 342.974 A 165.555 165.555 0 0 1 124.402 351.34 A 186.506 186.506 0 0 1 120.898 351.373 A 205.868 205.868 0 0 1 71.226 345.534 A 183.683 183.683 0 0 1 52.832 339.947 A 161.068 161.068 0 0 1 20.591 324.219 A 133.382 133.382 0 0 1 0 308.013 L 11.328 299.615 A 124.555 124.555 0 0 0 42.2 320.442 A 156.444 156.444 0 0 0 59.277 327.447 A 183.081 183.081 0 0 0 108.675 336.963 A 213.047 213.047 0 0 0 120.898 337.31 A 155.115 155.115 0 0 0 163.686 331.5 A 144.929 144.929 0 0 0 168.652 329.986 A 134.05 134.05 0 0 0 193.934 318.92 A 113.307 113.307 0 0 0 207.812 309.576 Q 224.414 296.49 234.18 277.349 Q 243.945 258.208 243.945 235.748 A 96.406 96.406 0 0 0 235.548 195.616 A 94.301 94.301 0 0 0 234.961 194.341 A 96.4 96.4 0 0 0 220.041 171.345 A 86.632 86.632 0 0 0 211.133 162.603 Q 196.289 150.005 177.441 142.974 A 110.065 110.065 0 0 0 138.672 135.943 Q 128.516 135.943 121.68 136.431 Q 115.298 136.887 107.384 138.024 A 286.333 286.333 0 0 0 106.25 138.189 A 577.068 577.068 0 0 1 102.234 138.769 Q 96.766 139.537 93.705 139.835 A 77.919 77.919 0 0 1 93.555 139.849 Z M 283.236 205.403 A 188.868 188.868 0 0 0 301.758 267.583 A 180.016 180.016 0 0 0 306.041 275.567 A 148.491 148.491 0 0 0 357.617 329.693 A 144.802 144.802 0 0 0 382.514 341.921 A 155.27 155.27 0 0 0 437.695 351.568 A 177.971 177.971 0 0 0 443.227 351.482 A 148.473 148.473 0 0 0 517.773 329.693 A 143.799 143.799 0 0 0 543.22 309.802 A 158.862 158.862 0 0 0 573.633 267.583 A 181.985 181.985 0 0 0 588.255 227.197 A 223.371 223.371 0 0 0 593.945 175.787 A 238.472 238.472 0 0 0 592.155 146.17 A 188.868 188.868 0 0 0 573.633 83.99 A 180.016 180.016 0 0 0 569.35 76.007 A 148.491 148.491 0 0 0 517.773 21.88 A 144.802 144.802 0 0 0 492.876 9.652 A 155.27 155.27 0 0 0 437.695 0.005 A 177.971 177.971 0 0 0 432.164 0.091 A 148.473 148.473 0 0 0 357.617 21.88 A 143.799 143.799 0 0 0 332.171 41.772 A 158.862 158.862 0 0 0 301.758 83.99 A 181.985 181.985 0 0 0 287.136 124.377 A 223.371 223.371 0 0 0 281.445 175.787 A 238.472 238.472 0 0 0 283.236 205.403 Z M 620.54 205.403 A 188.868 188.868 0 0 0 639.063 267.583 A 180.016 180.016 0 0 0 643.346 275.567 A 148.491 148.491 0 0 0 694.922 329.693 A 144.802 144.802 0 0 0 719.819 341.921 A 155.27 155.27 0 0 0 775 351.568 A 177.971 177.971 0 0 0 780.531 351.482 A 148.473 148.473 0 0 0 855.078 329.693 A 143.799 143.799 0 0 0 880.525 309.802 A 158.862 158.862 0 0 0 910.937 267.583 A 181.985 181.985 0 0 0 925.559 227.197 A 223.371 223.371 0 0 0 931.25 175.787 A 238.472 238.472 0 0 0 929.46 146.17 A 188.868 188.868 0 0 0 910.938 83.99 A 180.016 180.016 0 0 0 906.654 76.007 A 148.491 148.491 0 0 0 855.078 21.88 A 144.802 144.802 0 0 0 830.181 9.652 A 155.27 155.27 0 0 0 775 0.005 A 177.971 177.971 0 0 0 769.469 0.091 A 148.473 148.473 0 0 0 694.922 21.88 A 143.799 143.799 0 0 0 669.475 41.772 A 158.862 158.862 0 0 0 639.063 83.99 A 181.985 181.985 0 0 0 624.441 124.377 A 223.371 223.371 0 0 0 618.75 175.787 A 238.472 238.472 0 0 0 620.54 205.403 Z M 306.25 109.673 A 189.216 189.216 0 0 0 296.179 158.251 A 225.257 225.257 0 0 0 295.508 175.787 A 208.487 208.487 0 0 0 300.025 219.881 A 179.699 179.699 0 0 0 306.25 241.9 A 165.609 165.609 0 0 0 320.661 272.678 A 135.216 135.216 0 0 0 335.84 293.169 A 132.941 132.941 0 0 0 380.957 325.787 A 137.203 137.203 0 0 0 435.78 337.494 A 157.418 157.418 0 0 0 437.695 337.505 A 139.372 139.372 0 0 0 486.122 329.163 A 132.563 132.563 0 0 0 494.434 325.787 A 132.941 132.941 0 0 0 539.551 293.169 A 140.849 140.849 0 0 0 561.531 260.171 A 175.972 175.972 0 0 0 569.141 241.9 A 189.216 189.216 0 0 0 579.211 193.322 A 225.257 225.257 0 0 0 579.883 175.787 A 208.487 208.487 0 0 0 575.366 131.692 A 179.699 179.699 0 0 0 569.141 109.673 A 165.609 165.609 0 0 0 554.73 78.895 A 135.216 135.216 0 0 0 539.551 58.404 A 132.941 132.941 0 0 0 494.434 25.787 A 137.203 137.203 0 0 0 439.61 14.079 A 157.418 157.418 0 0 0 437.695 14.068 A 139.372 139.372 0 0 0 389.269 22.411 A 132.563 132.563 0 0 0 380.957 25.787 A 132.941 132.941 0 0 0 335.84 58.404 A 140.849 140.849 0 0 0 313.859 91.402 A 175.972 175.972 0 0 0 306.25 109.673 Z M 643.555 109.673 A 189.216 189.216 0 0 0 633.484 158.251 A 225.257 225.257 0 0 0 632.813 175.787 A 208.487 208.487 0 0 0 637.329 219.881 A 179.699 179.699 0 0 0 643.555 241.9 A 165.609 165.609 0 0 0 657.966 272.678 A 135.216 135.216 0 0 0 673.145 293.169 A 132.941 132.941 0 0 0 718.262 325.787 A 137.203 137.203 0 0 0 773.085 337.494 A 157.418 157.418 0 0 0 775 337.505 A 139.372 139.372 0 0 0 823.427 329.163 A 132.563 132.563 0 0 0 831.738 325.787 A 132.941 132.941 0 0 0 876.855 293.169 A 140.849 140.849 0 0 0 898.836 260.171 A 175.972 175.972 0 0 0 906.445 241.9 A 189.216 189.216 0 0 0 916.516 193.322 A 225.257 225.257 0 0 0 917.187 175.787 A 208.487 208.487 0 0 0 912.671 131.692 A 179.699 179.699 0 0 0 906.445 109.673 A 165.609 165.609 0 0 0 892.034 78.895 A 135.216 135.216 0 0 0 876.855 58.404 A 132.941 132.941 0 0 0 831.738 25.787 A 137.203 137.203 0 0 0 776.915 14.079 A 157.418 157.418 0 0 0 775 14.068 A 139.372 139.372 0 0 0 726.573 22.411 A 132.563 132.563 0 0 0 718.262 25.787 A 132.941 132.941 0 0 0 673.145 58.404 A 140.849 140.849 0 0 0 651.164 91.402 A 175.972 175.972 0 0 0 643.555 109.673 Z M 563.78 146.155 A 160.248 160.248 0 0 0 549.316 98.15 A 147.519 147.519 0 0 0 543.851 88 A 120.327 120.327 0 0 0 503.711 46.294 A 116.982 116.982 0 0 0 480.536 35.137 A 128.167 128.167 0 0 0 437.695 28.13 A 145.752 145.752 0 0 0 430.843 28.29 A 120.471 120.471 0 0 0 371.68 46.294 Q 342.578 64.458 326.074 98.15 Q 309.57 131.841 309.57 175.787 A 208.057 208.057 0 0 0 311.61 205.418 A 160.248 160.248 0 0 0 326.074 253.423 A 147.519 147.519 0 0 0 331.539 263.573 A 120.327 120.327 0 0 0 371.68 305.279 A 116.982 116.982 0 0 0 394.855 316.436 A 128.167 128.167 0 0 0 437.695 323.443 A 145.752 145.752 0 0 0 444.548 323.283 A 120.471 120.471 0 0 0 503.711 305.279 Q 532.813 287.115 549.316 253.423 Q 565.82 219.732 565.82 175.787 A 208.057 208.057 0 0 0 563.78 146.155 Z M 901.085 146.155 A 160.248 160.248 0 0 0 886.621 98.15 A 147.519 147.519 0 0 0 881.156 88 A 120.327 120.327 0 0 0 841.016 46.294 A 116.982 116.982 0 0 0 817.84 35.137 A 128.167 128.167 0 0 0 775 28.13 A 145.752 145.752 0 0 0 768.147 28.29 A 120.471 120.471 0 0 0 708.984 46.294 Q 679.883 64.458 663.379 98.15 Q 646.875 131.841 646.875 175.787 A 208.057 208.057 0 0 0 648.915 205.418 A 160.248 160.248 0 0 0 663.379 253.423 A 147.519 147.519 0 0 0 668.844 263.573 A 120.327 120.327 0 0 0 708.984 305.279 A 116.982 116.982 0 0 0 732.16 316.436 A 128.167 128.167 0 0 0 775 323.443 A 145.752 145.752 0 0 0 781.853 323.283 A 120.471 120.471 0 0 0 841.016 305.279 Q 870.117 287.115 886.621 253.423 Q 903.125 219.732 903.125 175.787 A 208.057 208.057 0 0 0 901.085 146.155 Z M 93.555 166.802 L 93.555 152.544 A 434.465 434.465 0 0 1 115.186 150.64 A 319.024 319.024 0 0 1 134.766 150.005 A 107.422 107.422 0 0 1 171.368 156.158 A 100.711 100.711 0 0 1 182.52 160.943 A 86.723 86.723 0 0 1 217.09 191.607 Q 229.883 211.333 229.883 235.748 A 76.37 76.37 0 0 1 215.137 281.939 A 91.533 91.533 0 0 1 180.229 310.638 A 109.699 109.699 0 0 1 175.684 312.701 A 132.118 132.118 0 0 1 135.826 322.568 A 160.719 160.719 0 0 1 120.898 323.248 A 185.37 185.37 0 0 1 83.271 319.547 A 160.313 160.313 0 0 1 65.039 314.654 A 135.59 135.59 0 0 1 40.35 303.731 A 107.762 107.762 0 0 1 21.875 290.435 L 32.813 281.646 Q 48.438 294.927 71.387 302.056 A 159.829 159.829 0 0 0 107.843 308.74 A 188.392 188.392 0 0 0 120.898 309.185 Q 161.328 309.185 188.574 289.166 Q 215.101 269.675 215.801 237.503 A 80.604 80.604 0 0 0 215.82 235.748 Q 215.82 213.091 204.199 196.294 Q 192.578 179.498 174.414 171.49 A 95.114 95.114 0 0 0 143.109 163.812 A 113.719 113.719 0 0 0 134.375 163.482 A 251.846 251.846 0 0 0 106.077 165.016 A 213.917 213.917 0 0 0 93.555 166.802 Z M 355.371 78.716 A 124.832 124.832 0 0 0 328.476 132.15 Q 323.935 150.886 323.652 172.845 A 227.683 227.683 0 0 0 323.633 175.787 A 187.462 187.462 0 0 0 327.912 217.012 Q 334.592 246.66 351.699 268.415 A 117.445 117.445 0 0 0 355.371 272.857 Q 387.109 309.38 437.695 309.38 A 113.732 113.732 0 0 0 479.505 301.946 A 103.054 103.054 0 0 0 520.02 272.857 A 124.832 124.832 0 0 0 546.915 219.423 Q 551.455 200.687 551.739 178.729 A 227.683 227.683 0 0 0 551.758 175.787 A 187.462 187.462 0 0 0 547.479 134.562 Q 540.799 104.913 523.692 83.158 A 117.445 117.445 0 0 0 520.02 78.716 Q 488.281 42.193 437.695 42.193 A 113.732 113.732 0 0 0 395.886 49.627 A 103.054 103.054 0 0 0 355.371 78.716 Z M 692.676 78.716 A 124.832 124.832 0 0 0 665.78 132.15 Q 661.24 150.886 660.956 172.845 A 227.683 227.683 0 0 0 660.937 175.787 A 187.462 187.462 0 0 0 665.217 217.012 Q 671.896 246.66 689.003 268.415 A 117.445 117.445 0 0 0 692.676 272.857 Q 724.414 309.38 775 309.38 A 113.732 113.732 0 0 0 816.809 301.946 A 103.054 103.054 0 0 0 857.324 272.857 A 124.832 124.832 0 0 0 884.22 219.423 Q 888.76 200.687 889.044 178.729 A 227.683 227.683 0 0 0 889.063 175.787 A 187.462 187.462 0 0 0 884.783 134.562 Q 878.104 104.913 860.997 83.158 A 117.445 117.445 0 0 0 857.324 78.716 Q 825.586 42.193 775 42.193 A 113.732 113.732 0 0 0 733.191 49.627 A 103.054 103.054 0 0 0 692.676 78.716 Z M 532.777 133.607 A 110.633 110.633 0 0 0 510.059 88.677 A 89.314 89.314 0 0 0 473.56 62.461 A 100.018 100.018 0 0 0 437.695 56.255 A 118.061 118.061 0 0 0 430.726 56.458 A 89.406 89.406 0 0 0 365.332 88.677 Q 337.695 121.099 337.695 175.787 A 209.387 209.387 0 0 0 337.777 181.669 Q 338.329 201.321 342.614 217.966 A 110.633 110.633 0 0 0 365.332 262.896 A 89.314 89.314 0 0 0 401.831 289.112 A 100.018 100.018 0 0 0 437.695 295.318 A 118.061 118.061 0 0 0 444.664 295.115 A 89.406 89.406 0 0 0 510.059 262.896 Q 537.695 230.474 537.695 175.787 A 209.387 209.387 0 0 0 537.614 169.904 Q 537.061 150.252 532.777 133.607 Z M 870.081 133.607 A 110.633 110.633 0 0 0 847.363 88.677 A 89.314 89.314 0 0 0 810.865 62.461 A 100.018 100.018 0 0 0 775 56.255 A 118.061 118.061 0 0 0 768.031 56.458 A 89.406 89.406 0 0 0 702.637 88.677 Q 675 121.099 675 175.787 A 209.387 209.387 0 0 0 675.082 181.669 Q 675.634 201.321 679.919 217.966 A 110.633 110.633 0 0 0 702.637 262.896 A 89.314 89.314 0 0 0 739.135 289.112 A 100.018 100.018 0 0 0 775 295.318 A 118.061 118.061 0 0 0 781.969 295.115 A 89.406 89.406 0 0 0 847.363 262.896 Q 875 230.474 875 175.787 A 209.387 209.387 0 0 0 874.918 169.904 Q 874.366 150.252 870.081 133.607 Z M 93.555 194.732 L 93.555 179.888 Q 115.836 177.171 129.549 176.974 A 145.662 145.662 0 0 1 131.641 176.958 A 90.807 90.807 0 0 1 156.366 180.187 A 72.986 72.986 0 0 1 181.348 192.681 A 50.39 50.39 0 0 1 201.478 229.498 A 68.159 68.159 0 0 1 201.758 235.748 Q 201.758 263.287 178.711 279.205 A 87.042 87.042 0 0 1 147.219 292.494 Q 135.026 295.123 120.898 295.123 A 177.726 177.726 0 0 1 90.905 292.754 Q 62.37 287.86 43.945 272.857 L 55.078 264.263 Q 72.835 277.096 101.879 280.125 A 183.64 183.64 0 0 0 120.898 281.06 Q 149.805 281.06 168.75 269.146 A 43.504 43.504 0 0 0 180.109 259.106 Q 187.34 249.801 187.679 237.014 A 47.782 47.782 0 0 0 187.695 235.748 A 46.404 46.404 0 0 0 185.412 220.827 A 37.572 37.572 0 0 0 171.289 202.056 A 62.078 62.078 0 0 0 144.073 191.174 A 82.461 82.461 0 0 0 131.445 190.24 A 161.358 161.358 0 0 0 107.02 192.174 A 196.364 196.364 0 0 0 93.555 194.732 Z M 375.293 98.541 Q 351.758 126.763 351.758 175.787 A 164.886 164.886 0 0 0 354.531 206.991 Q 358.013 225.042 365.866 239.23 A 88.141 88.141 0 0 0 375.293 253.033 A 76.017 76.017 0 0 0 430.542 281.007 A 101.43 101.43 0 0 0 437.695 281.255 A 86.566 86.566 0 0 0 467.761 276.232 A 75.662 75.662 0 0 0 500.098 253.033 Q 523.633 224.81 523.633 175.787 A 164.886 164.886 0 0 0 520.86 144.582 Q 517.378 126.531 509.524 112.343 A 88.141 88.141 0 0 0 500.098 98.541 A 76.017 76.017 0 0 0 444.848 70.566 A 101.43 101.43 0 0 0 437.695 70.318 A 86.566 86.566 0 0 0 407.63 75.341 A 75.662 75.662 0 0 0 375.293 98.541 Z M 712.598 98.541 Q 689.063 126.763 689.063 175.787 A 164.886 164.886 0 0 0 691.836 206.991 Q 695.317 225.042 703.171 239.23 A 88.141 88.141 0 0 0 712.598 253.033 A 76.017 76.017 0 0 0 767.847 281.007 A 101.43 101.43 0 0 0 775 281.255 A 86.566 86.566 0 0 0 805.065 276.232 A 75.662 75.662 0 0 0 837.402 253.033 Q 860.938 224.81 860.938 175.787 A 164.886 164.886 0 0 0 858.164 144.582 Q 854.683 126.531 846.829 112.343 A 88.141 88.141 0 0 0 837.402 98.541 A 76.017 76.017 0 0 0 782.153 70.566 A 101.43 101.43 0 0 0 775 70.318 A 86.566 86.566 0 0 0 744.935 75.341 A 75.662 75.662 0 0 0 712.598 98.541 Z M 504.404 136.337 A 80.941 80.941 0 0 0 490.137 108.501 A 62.154 62.154 0 0 0 462.274 88.361 A 72.756 72.756 0 0 0 437.695 84.38 A 85.001 85.001 0 0 0 431.131 84.629 A 62.677 62.677 0 0 0 385.254 108.501 A 75.369 75.369 0 0 0 375.798 123.706 Q 365.82 144.857 365.82 175.787 A 172.164 172.164 0 0 0 366.338 189.364 Q 367.455 203.483 370.987 215.237 A 80.941 80.941 0 0 0 385.254 243.072 A 62.154 62.154 0 0 0 413.117 263.212 A 72.756 72.756 0 0 0 437.695 267.193 A 85.001 85.001 0 0 0 444.26 266.944 A 62.677 62.677 0 0 0 490.137 243.072 A 75.369 75.369 0 0 0 499.592 227.868 Q 509.57 206.716 509.57 175.787 A 172.164 172.164 0 0 0 509.053 162.209 Q 507.936 148.09 504.404 136.337 Z M 841.708 136.337 A 80.941 80.941 0 0 0 827.441 108.501 A 62.154 62.154 0 0 0 799.579 88.361 A 72.756 72.756 0 0 0 775 84.38 A 85.001 85.001 0 0 0 768.435 84.629 A 62.677 62.677 0 0 0 722.559 108.501 A 75.369 75.369 0 0 0 713.103 123.706 Q 703.125 144.857 703.125 175.787 A 172.164 172.164 0 0 0 703.642 189.364 Q 704.76 203.483 708.292 215.237 A 80.941 80.941 0 0 0 722.559 243.072 A 62.154 62.154 0 0 0 750.421 263.212 A 72.756 72.756 0 0 0 775 267.193 A 85.001 85.001 0 0 0 781.565 266.944 A 62.677 62.677 0 0 0 827.441 243.072 A 75.369 75.369 0 0 0 836.897 227.868 Q 846.875 206.716 846.875 175.787 A 172.164 172.164 0 0 0 846.358 162.209 Q 845.24 148.09 841.708 136.337 Z M 13.867 42.193 L 227.734 42.193 L 227.734 56.255 L 13.867 56.255 L 13.867 42.193 Z M 13.867 14.068 L 227.734 14.068 L 227.734 28.13 L 13.867 28.13 L 13.867 14.068 Z M 395.215 118.365 A 65.746 65.746 0 0 0 384.87 138.731 Q 381.928 147.973 380.722 159.205 A 155.48 155.48 0 0 0 379.883 175.787 A 147.056 147.056 0 0 0 381.38 197.508 Q 384.674 219.512 395.215 233.208 A 49.378 49.378 0 0 0 431.093 252.819 A 68.373 68.373 0 0 0 437.695 253.13 A 59.236 59.236 0 0 0 456.926 250.151 A 48.787 48.787 0 0 0 480.176 233.208 A 65.746 65.746 0 0 0 490.521 212.843 Q 493.462 203.6 494.669 192.369 A 155.48 155.48 0 0 0 495.508 175.787 A 147.056 147.056 0 0 0 494.011 154.066 Q 490.717 132.061 480.176 118.365 A 49.378 49.378 0 0 0 444.298 98.754 A 68.373 68.373 0 0 0 437.695 98.443 A 59.236 59.236 0 0 0 418.465 101.422 A 48.787 48.787 0 0 0 395.215 118.365 Z M 732.52 118.365 A 65.746 65.746 0 0 0 722.174 138.731 Q 719.233 147.973 718.026 159.205 A 155.48 155.48 0 0 0 717.187 175.787 A 147.056 147.056 0 0 0 718.685 197.508 Q 721.979 219.512 732.52 233.208 A 49.378 49.378 0 0 0 768.398 252.819 A 68.373 68.373 0 0 0 775 253.13 A 59.236 59.236 0 0 0 794.23 250.151 A 48.787 48.787 0 0 0 817.48 233.208 A 65.746 65.746 0 0 0 827.826 212.843 Q 830.767 203.6 831.974 192.369 A 155.48 155.48 0 0 0 832.813 175.787 A 147.056 147.056 0 0 0 831.315 154.066 Q 828.021 132.061 817.48 118.365 A 49.378 49.378 0 0 0 781.602 98.754 A 68.373 68.373 0 0 0 775 98.443 A 59.236 59.236 0 0 0 755.77 101.422 A 48.787 48.787 0 0 0 732.52 118.365 Z M 93.555 221.88 L 93.555 207.818 A 145.996 145.996 0 0 1 127.93 203.716 A 91.442 91.442 0 0 1 139.596 204.426 A 68.054 68.054 0 0 1 150.293 206.646 A 35.699 35.699 0 0 1 166.895 216.998 A 25.709 25.709 0 0 1 173.386 231.554 A 34.644 34.644 0 0 1 173.633 235.748 A 25.855 25.855 0 0 1 171.057 247.444 Q 167.469 254.638 158.887 259.185 A 61.164 61.164 0 0 1 144.358 264.526 Q 133.972 266.998 120.898 266.998 A 179.494 179.494 0 0 1 100.959 265.965 Q 79.887 263.602 66.741 255.835 A 52.943 52.943 0 0 1 65.82 255.279 L 77.148 246.685 A 43.449 43.449 0 0 0 85.603 249.671 Q 94.339 251.89 107.505 252.6 A 249.442 249.442 0 0 0 120.898 252.935 A 131.355 131.355 0 0 0 133.548 252.38 Q 159.57 249.847 159.57 235.748 A 17.177 17.177 0 0 0 158.46 229.42 Q 156.412 224.207 150.586 221.294 Q 143.201 217.602 132.516 216.945 A 77.919 77.919 0 0 0 127.734 216.802 A 147.863 147.863 0 0 0 114.582 217.349 Q 108.333 217.909 103.076 219.042 A 59.295 59.295 0 0 0 93.555 221.88 Z" vector-effect="non-scaling-stroke" class="YqNSYnbg_0"></path></g><style data-made-with="vivus-instant">.YqNSYnbg_0{stroke-dasharray:17137 17139;stroke-dashoffset:17138;animation:YqNSYnbg_draw_0 24200ms linear 0ms infinite,YqNSYnbg_fade 24200ms linear 0ms infinite;}@keyframes YqNSYnbg_draw{100%{stroke-dashoffset:0;}}@keyframes YqNSYnbg_fade{0%{stroke-opacity:1;}98.34710743801652%{stroke-opacity:1;}100%{stroke-opacity:0;}}@keyframes YqNSYnbg_draw_0{3.3057851239669422%{stroke-dashoffset: 17138}58.4022038567493%{ stroke-dashoffset: 0;}100%{ stroke-dashoffset: 0;}}</style></svg>