<svg width="828.126" height="351.573" viewBox="0 0 828.126 351.573" xmlns="http://www.w3.org/2000/svg" style=""><g id="svgGroup" stroke-linecap="round" fill-rule="evenodd" font-size="9pt" stroke="#000" stroke-width="0.25mm" fill="none" style="stroke:#9f00a6;stroke-width:0.75mm;fill:none"><path stroke-width="4" color="#9f00a6" d="M 13.867 70.318 L 227.734 70.318 L 227.734 84.38 L 84.18 84.38 L 84.18 220.708 L 70.117 220.708 L 70.117 84.38 L 56.055 84.38 L 56.055 220.708 L 41.992 220.708 L 41.992 84.38 L 27.93 84.38 L 27.93 220.708 L 13.867 220.708 L 13.867 70.318 Z M 93.555 139.849 L 93.555 125.396 Q 108.434 123.27 127.915 122.797 A 475.45 475.45 0 0 1 139.453 122.662 A 125.668 125.668 0 0 1 184.18 130.767 A 122.76 122.76 0 0 1 222.054 153.214 A 113.628 113.628 0 0 1 222.07 153.228 Q 238.477 167.583 248.242 189.068 A 110.546 110.546 0 0 1 257.96 232.223 A 128.04 128.04 0 0 1 258.008 235.748 A 104.379 104.379 0 0 1 247.168 282.916 Q 236.328 304.693 217.773 319.634 A 133.802 133.802 0 0 1 186.261 338.366 A 159.892 159.892 0 0 1 174.121 342.974 A 165.555 165.555 0 0 1 124.402 351.34 A 186.506 186.506 0 0 1 120.898 351.373 A 205.868 205.868 0 0 1 71.226 345.534 A 183.683 183.683 0 0 1 52.832 339.947 A 161.068 161.068 0 0 1 20.591 324.219 A 133.382 133.382 0 0 1 0 308.013 L 11.328 299.615 A 124.555 124.555 0 0 0 42.2 320.442 A 156.444 156.444 0 0 0 59.277 327.447 A 183.081 183.081 0 0 0 108.675 336.963 A 213.047 213.047 0 0 0 120.898 337.31 A 155.115 155.115 0 0 0 163.686 331.5 A 144.929 144.929 0 0 0 168.652 329.986 A 134.05 134.05 0 0 0 193.934 318.92 A 113.307 113.307 0 0 0 207.812 309.576 Q 224.414 296.49 234.18 277.349 Q 243.945 258.208 243.945 235.748 A 96.406 96.406 0 0 0 235.548 195.616 A 94.301 94.301 0 0 0 234.961 194.341 A 96.4 96.4 0 0 0 220.041 171.345 A 86.632 86.632 0 0 0 211.133 162.603 Q 196.289 150.005 177.441 142.974 A 110.065 110.065 0 0 0 138.672 135.943 Q 128.516 135.943 121.68 136.431 Q 115.298 136.887 107.384 138.024 A 286.333 286.333 0 0 0 106.25 138.189 A 577.068 577.068 0 0 1 102.234 138.769 Q 96.766 139.537 93.705 139.835 A 77.919 77.919 0 0 1 93.555 139.849 Z M 283.236 205.403 A 188.868 188.868 0 0 0 301.758 267.583 A 180.016 180.016 0 0 0 306.041 275.567 A 148.491 148.491 0 0 0 357.617 329.693 A 144.802 144.802 0 0 0 382.514 341.921 A 155.27 155.27 0 0 0 437.695 351.568 A 177.971 177.971 0 0 0 443.227 351.482 A 148.473 148.473 0 0 0 517.773 329.693 A 143.799 143.799 0 0 0 543.22 309.802 A 158.862 158.862 0 0 0 573.633 267.583 A 181.985 181.985 0 0 0 588.255 227.197 A 223.371 223.371 0 0 0 593.945 175.787 A 238.472 238.472 0 0 0 592.155 146.17 A 188.868 188.868 0 0 0 573.633 83.99 A 180.016 180.016 0 0 0 569.35 76.007 A 148.491 148.491 0 0 0 517.773 21.88 A 144.802 144.802 0 0 0 492.876 9.652 A 155.27 155.27 0 0 0 437.695 0.005 A 177.971 177.971 0 0 0 432.164 0.091 A 148.473 148.473 0 0 0 357.617 21.88 A 143.799 143.799 0 0 0 332.171 41.772 A 158.862 158.862 0 0 0 301.758 83.99 A 181.985 181.985 0 0 0 287.136 124.377 A 223.371 223.371 0 0 0 281.445 175.787 A 238.472 238.472 0 0 0 283.236 205.403 Z M 306.25 109.673 A 189.216 189.216 0 0 0 296.179 158.251 A 225.257 225.257 0 0 0 295.508 175.787 A 208.487 208.487 0 0 0 300.025 219.881 A 179.699 179.699 0 0 0 306.25 241.9 A 165.609 165.609 0 0 0 320.661 272.678 A 135.216 135.216 0 0 0 335.84 293.169 A 132.941 132.941 0 0 0 380.957 325.787 A 137.203 137.203 0 0 0 435.78 337.494 A 157.418 157.418 0 0 0 437.695 337.505 A 139.372 139.372 0 0 0 486.122 329.163 A 132.563 132.563 0 0 0 494.434 325.787 A 132.941 132.941 0 0 0 539.551 293.169 A 140.849 140.849 0 0 0 561.531 260.171 A 175.972 175.972 0 0 0 569.141 241.9 A 189.216 189.216 0 0 0 579.211 193.322 A 225.257 225.257 0 0 0 579.883 175.787 A 208.487 208.487 0 0 0 575.366 131.692 A 179.699 179.699 0 0 0 569.141 109.673 A 165.609 165.609 0 0 0 554.73 78.895 A 135.216 135.216 0 0 0 539.551 58.404 A 132.941 132.941 0 0 0 494.434 25.787 A 137.203 137.203 0 0 0 439.61 14.079 A 157.418 157.418 0 0 0 437.695 14.068 A 139.372 139.372 0 0 0 389.269 22.411 A 132.563 132.563 0 0 0 380.957 25.787 A 132.941 132.941 0 0 0 335.84 58.404 A 140.849 140.849 0 0 0 313.859 91.402 A 175.972 175.972 0 0 0 306.25 109.673 Z M 741.016 259.38 L 724.609 259.38 Q 765.452 205.375 783.946 177.939 A 587.001 587.001 0 0 0 784.277 177.447 A 551.153 551.153 0 0 0 792.706 164.556 Q 800.395 152.401 804.836 143.619 A 98.692 98.692 0 0 0 808.398 135.845 A 77.942 77.942 0 0 0 814.062 106.646 A 109.873 109.873 0 0 0 812.339 86.792 A 88.35 88.35 0 0 0 808.301 71.978 A 78.039 78.039 0 0 0 799.538 54.867 A 67.195 67.195 0 0 0 792.09 45.806 A 89.013 89.013 0 0 0 772.554 30.888 A 104.223 104.223 0 0 0 766.992 27.935 A 121.884 121.884 0 0 0 741.319 18.771 A 140.495 140.495 0 0 0 734.863 17.388 A 188.068 188.068 0 0 0 711.906 14.535 A 229.906 229.906 0 0 0 697.07 14.068 A 266.079 266.079 0 0 0 644.031 19.607 A 321.549 321.549 0 0 0 618.945 25.787 L 616.016 11.919 A 298.938 298.938 0 0 1 676.804 0.753 A 266.348 266.348 0 0 1 696.68 0.005 A 234.913 234.913 0 0 1 724.585 1.592 A 179.93 179.93 0 0 1 749.707 6.353 A 136.3 136.3 0 0 1 775.752 16.129 A 114.036 114.036 0 0 1 791.113 25.396 A 84.062 84.062 0 0 1 818.457 58.794 Q 828.125 79.498 828.125 106.646 A 94.483 94.483 0 0 1 823.632 135.953 A 89.187 89.187 0 0 1 822.559 139.068 Q 816.992 154.302 798.34 182.232 A 633.533 633.533 0 0 1 787.762 197.527 Q 775.564 214.673 758.043 237.479 A 2556.416 2556.416 0 0 1 741.016 259.38 Z M 563.78 146.155 A 160.248 160.248 0 0 0 549.316 98.15 A 147.519 147.519 0 0 0 543.851 88 A 120.327 120.327 0 0 0 503.711 46.294 A 116.982 116.982 0 0 0 480.536 35.137 A 128.167 128.167 0 0 0 437.695 28.13 A 145.752 145.752 0 0 0 430.843 28.29 A 120.471 120.471 0 0 0 371.68 46.294 Q 342.578 64.458 326.074 98.15 Q 309.57 131.841 309.57 175.787 A 208.057 208.057 0 0 0 311.61 205.418 A 160.248 160.248 0 0 0 326.074 253.423 A 147.519 147.519 0 0 0 331.539 263.573 A 120.327 120.327 0 0 0 371.68 305.279 A 116.982 116.982 0 0 0 394.855 316.436 A 128.167 128.167 0 0 0 437.695 323.443 A 145.752 145.752 0 0 0 444.548 323.283 A 120.471 120.471 0 0 0 503.711 305.279 Q 532.813 287.115 549.316 253.423 Q 565.82 219.732 565.82 175.787 A 208.057 208.057 0 0 0 563.78 146.155 Z M 93.555 166.802 L 93.555 152.544 A 434.465 434.465 0 0 1 115.186 150.64 A 319.024 319.024 0 0 1 134.766 150.005 A 107.422 107.422 0 0 1 171.368 156.158 A 100.711 100.711 0 0 1 182.52 160.943 A 86.723 86.723 0 0 1 217.09 191.607 Q 229.883 211.333 229.883 235.748 A 76.37 76.37 0 0 1 215.137 281.939 A 91.533 91.533 0 0 1 180.229 310.638 A 109.699 109.699 0 0 1 175.684 312.701 A 132.118 132.118 0 0 1 135.826 322.568 A 160.719 160.719 0 0 1 120.898 323.248 A 185.37 185.37 0 0 1 83.271 319.547 A 160.313 160.313 0 0 1 65.039 314.654 A 135.59 135.59 0 0 1 40.35 303.731 A 107.762 107.762 0 0 1 21.875 290.435 L 32.813 281.646 Q 48.438 294.927 71.387 302.056 A 159.829 159.829 0 0 0 107.843 308.74 A 188.392 188.392 0 0 0 120.898 309.185 Q 161.328 309.185 188.574 289.166 Q 215.101 269.675 215.801 237.503 A 80.604 80.604 0 0 0 215.82 235.748 Q 215.82 213.091 204.199 196.294 Q 192.578 179.498 174.414 171.49 A 95.114 95.114 0 0 0 143.109 163.812 A 113.719 113.719 0 0 0 134.375 163.482 A 251.846 251.846 0 0 0 106.077 165.016 A 213.917 213.917 0 0 0 93.555 166.802 Z M 707.227 259.38 L 690.82 259.38 A 11949.91 11949.91 0 0 0 713.956 227.663 Q 760.095 164.172 771.68 146.001 A 138.764 138.764 0 0 0 778.572 134.001 Q 784.844 121.575 785.775 111.892 A 34.402 34.402 0 0 0 785.937 108.599 A 79.499 79.499 0 0 0 784.573 93.507 A 58.054 58.054 0 0 0 778.809 76.958 Q 771.68 63.677 758.887 56.255 A 95.786 95.786 0 0 0 732.194 45.833 A 107.498 107.498 0 0 0 730.762 45.513 A 143.477 143.477 0 0 0 712.465 42.831 A 187.844 187.844 0 0 0 696.68 42.193 Q 660.547 42.193 624.609 53.13 L 621.68 38.873 A 279.135 279.135 0 0 1 670.511 28.945 A 237.841 237.841 0 0 1 696.094 27.544 A 214.064 214.064 0 0 1 716.073 28.44 A 172.969 172.969 0 0 1 728.711 30.083 A 117.749 117.749 0 0 1 757.129 38.58 A 80.977 80.977 0 0 1 771.911 47.036 A 68.451 68.451 0 0 1 779.785 53.716 A 61.433 61.433 0 0 1 790.637 68.406 A 77.381 77.381 0 0 1 794.531 76.861 A 78.017 78.017 0 0 1 799.097 94.787 A 101.812 101.812 0 0 1 800 108.599 A 58.926 58.926 0 0 1 797.055 126.693 A 73.522 73.522 0 0 1 794.043 134.478 A 108.791 108.791 0 0 1 790.271 141.93 Q 783.423 154.4 769.434 174.615 A 1118.245 1118.245 0 0 1 758.551 190.02 Q 740.822 214.726 710.446 255.104 A 7692.477 7692.477 0 0 1 707.227 259.38 Z M 355.371 78.716 A 124.832 124.832 0 0 0 328.476 132.15 Q 323.935 150.886 323.652 172.845 A 227.683 227.683 0 0 0 323.633 175.787 A 187.462 187.462 0 0 0 327.912 217.012 Q 334.592 246.66 351.699 268.415 A 117.445 117.445 0 0 0 355.371 272.857 Q 387.109 309.38 437.695 309.38 A 113.732 113.732 0 0 0 479.505 301.946 A 103.054 103.054 0 0 0 520.02 272.857 A 124.832 124.832 0 0 0 546.915 219.423 Q 551.455 200.687 551.739 178.729 A 227.683 227.683 0 0 0 551.758 175.787 A 187.462 187.462 0 0 0 547.479 134.562 Q 540.799 104.913 523.692 83.158 A 117.445 117.445 0 0 0 520.02 78.716 Q 488.281 42.193 437.695 42.193 A 113.732 113.732 0 0 0 395.886 49.627 A 103.054 103.054 0 0 0 355.371 78.716 Z M 674.609 259.38 L 658.203 259.38 Q 731.055 161.333 739.063 149.81 A 315.854 315.854 0 0 0 745.549 140.201 Q 755.896 124.194 757.422 116.412 A 26.511 26.511 0 0 0 757.951 112.467 A 31.465 31.465 0 0 0 758.008 110.552 A 33.979 33.979 0 0 0 739.155 78.149 Q 724.997 70.648 700.205 70.157 A 178.056 178.056 0 0 0 696.68 70.123 A 224.759 224.759 0 0 0 658.594 73.443 A 358.832 358.832 0 0 0 649.573 75.103 Q 637.012 77.593 630.273 80.083 L 627.539 66.607 A 232.853 232.853 0 0 1 696.875 56.255 Q 709.375 56.255 720.02 57.916 Q 730.664 59.576 740.43 63.482 A 60.512 60.512 0 0 1 750.489 68.587 A 49.5 49.5 0 0 1 757.031 73.541 A 41.982 41.982 0 0 1 765.984 85.121 A 50.722 50.722 0 0 1 767.871 89.068 Q 771.875 98.443 771.875 110.552 A 33.558 33.558 0 0 1 770.55 119.449 Q 768.231 127.845 761.851 138.367 A 138.501 138.501 0 0 1 759.57 141.998 Q 748.056 159.725 693.618 233.545 A 14496.593 14496.593 0 0 1 685.937 243.951 A 1911.109 1911.109 0 0 0 682.446 248.65 Q 679.073 253.207 676.634 256.57 A 479.631 479.631 0 0 0 674.609 259.38 Z M 532.777 133.607 A 110.633 110.633 0 0 0 510.059 88.677 A 89.314 89.314 0 0 0 473.56 62.461 A 100.018 100.018 0 0 0 437.695 56.255 A 118.061 118.061 0 0 0 430.726 56.458 A 89.406 89.406 0 0 0 365.332 88.677 Q 337.695 121.099 337.695 175.787 A 209.387 209.387 0 0 0 337.777 181.669 Q 338.329 201.321 342.614 217.966 A 110.633 110.633 0 0 0 365.332 262.896 A 89.314 89.314 0 0 0 401.831 289.112 A 100.018 100.018 0 0 0 437.695 295.318 A 118.061 118.061 0 0 0 444.664 295.115 A 89.406 89.406 0 0 0 510.059 262.896 Q 537.695 230.474 537.695 175.787 A 209.387 209.387 0 0 0 537.614 169.904 Q 537.061 150.252 532.777 133.607 Z M 93.555 194.732 L 93.555 179.888 Q 115.836 177.171 129.549 176.974 A 145.662 145.662 0 0 1 131.641 176.958 A 90.807 90.807 0 0 1 156.366 180.187 A 72.986 72.986 0 0 1 181.348 192.681 A 50.39 50.39 0 0 1 201.478 229.498 A 68.159 68.159 0 0 1 201.758 235.748 Q 201.758 263.287 178.711 279.205 A 87.042 87.042 0 0 1 147.219 292.494 Q 135.026 295.123 120.898 295.123 A 177.726 177.726 0 0 1 90.905 292.754 Q 62.37 287.86 43.945 272.857 L 55.078 264.263 Q 72.835 277.096 101.879 280.125 A 183.64 183.64 0 0 0 120.898 281.06 Q 149.805 281.06 168.75 269.146 A 43.504 43.504 0 0 0 180.109 259.106 Q 187.34 249.801 187.679 237.014 A 47.782 47.782 0 0 0 187.695 235.748 A 46.404 46.404 0 0 0 185.412 220.827 A 37.572 37.572 0 0 0 171.289 202.056 A 62.078 62.078 0 0 0 144.073 191.174 A 82.461 82.461 0 0 0 131.445 190.24 A 161.358 161.358 0 0 0 107.02 192.174 A 196.364 196.364 0 0 0 93.555 194.732 Z M 642.773 259.38 L 626.367 259.38 Q 640.039 240.826 653.32 223.052 A 19009.598 19009.598 0 0 1 659.686 214.538 Q 668.529 202.718 675.056 194.037 A 6509.287 6509.287 0 0 1 675.488 193.462 A 4211.982 4211.982 0 0 0 692.773 170.318 Q 701.172 158.99 706.348 152.154 A 883.682 883.682 0 0 0 713.837 142.12 A 791.265 791.265 0 0 0 716.211 138.873 A 462.412 462.412 0 0 0 718.408 135.827 Q 720.523 132.869 722.015 130.663 A 115.721 115.721 0 0 0 723.242 128.814 A 132.395 132.395 0 0 0 725.981 124.412 A 109.788 109.788 0 0 0 727.441 121.88 Q 729.297 118.56 729.883 116.509 A 15.095 15.095 0 0 0 730.422 113.612 A 13.338 13.338 0 0 0 730.469 112.505 Q 730.469 103.882 723.631 101.196 A 13.946 13.946 0 0 0 723.047 100.982 A 31.673 31.673 0 0 0 718.628 99.871 Q 710.938 98.443 696.875 98.443 A 238.867 238.867 0 0 0 635.938 106.451 L 633.008 92.974 A 24.828 24.828 0 0 1 635.796 91.992 Q 642.15 90.091 657.715 87.408 A 232.734 232.734 0 0 1 686.481 84.21 A 203.475 203.475 0 0 1 695.898 83.99 A 164.56 164.56 0 0 1 704.77 84.216 Q 709.017 84.446 712.724 84.909 A 86.988 86.988 0 0 1 715.234 85.259 Q 723.438 86.529 730.176 89.556 A 24.161 24.161 0 0 1 736.563 93.667 A 21.154 21.154 0 0 1 740.43 98.345 Q 743.945 104.107 743.945 112.505 A 22.073 22.073 0 0 1 743.042 118.444 Q 741.499 123.936 737.322 130.864 A 95.975 95.975 0 0 1 735.352 133.99 A 265.605 265.605 0 0 1 731.181 140.105 Q 720.093 155.975 691.211 194.537 A 17335.778 17335.778 0 0 0 670.85 221.691 Q 662.915 232.296 655.896 241.718 A 8160.847 8160.847 0 0 0 642.773 259.38 Z M 375.293 98.541 Q 351.758 126.763 351.758 175.787 A 164.886 164.886 0 0 0 354.531 206.991 Q 358.013 225.042 365.866 239.23 A 88.141 88.141 0 0 0 375.293 253.033 A 76.017 76.017 0 0 0 430.542 281.007 A 101.43 101.43 0 0 0 437.695 281.255 A 86.566 86.566 0 0 0 467.761 276.232 A 75.662 75.662 0 0 0 500.098 253.033 Q 523.633 224.81 523.633 175.787 A 164.886 164.886 0 0 0 520.86 144.582 Q 517.378 126.531 509.524 112.343 A 88.141 88.141 0 0 0 500.098 98.541 A 76.017 76.017 0 0 0 444.848 70.566 A 101.43 101.43 0 0 0 437.695 70.318 A 86.566 86.566 0 0 0 407.63 75.341 A 75.662 75.662 0 0 0 375.293 98.541 Z M 504.404 136.337 A 80.941 80.941 0 0 0 490.137 108.501 A 62.154 62.154 0 0 0 462.274 88.361 A 72.756 72.756 0 0 0 437.695 84.38 A 85.001 85.001 0 0 0 431.131 84.629 A 62.677 62.677 0 0 0 385.254 108.501 A 75.369 75.369 0 0 0 375.798 123.706 Q 365.82 144.857 365.82 175.787 A 172.164 172.164 0 0 0 366.338 189.364 Q 367.455 203.483 370.987 215.237 A 80.941 80.941 0 0 0 385.254 243.072 A 62.154 62.154 0 0 0 413.117 263.212 A 72.756 72.756 0 0 0 437.695 267.193 A 85.001 85.001 0 0 0 444.26 266.944 A 62.677 62.677 0 0 0 490.137 243.072 A 75.369 75.369 0 0 0 499.592 227.868 Q 509.57 206.716 509.57 175.787 A 172.164 172.164 0 0 0 509.053 162.209 Q 507.936 148.09 504.404 136.337 Z M 13.867 42.193 L 227.734 42.193 L 227.734 56.255 L 13.867 56.255 L 13.867 42.193 Z M 13.867 14.068 L 227.734 14.068 L 227.734 28.13 L 13.867 28.13 L 13.867 14.068 Z M 395.215 118.365 A 65.746 65.746 0 0 0 384.87 138.731 Q 381.928 147.973 380.722 159.205 A 155.48 155.48 0 0 0 379.883 175.787 A 147.056 147.056 0 0 0 381.38 197.508 Q 384.674 219.512 395.215 233.208 A 49.378 49.378 0 0 0 431.093 252.819 A 68.373 68.373 0 0 0 437.695 253.13 A 59.236 59.236 0 0 0 456.926 250.151 A 48.787 48.787 0 0 0 480.176 233.208 A 65.746 65.746 0 0 0 490.521 212.843 Q 493.462 203.6 494.669 192.369 A 155.48 155.48 0 0 0 495.508 175.787 A 147.056 147.056 0 0 0 494.011 154.066 Q 490.717 132.061 480.176 118.365 A 49.378 49.378 0 0 0 444.298 98.754 A 68.373 68.373 0 0 0 437.695 98.443 A 59.236 59.236 0 0 0 418.465 101.422 A 48.787 48.787 0 0 0 395.215 118.365 Z M 93.555 221.88 L 93.555 207.818 A 145.996 145.996 0 0 1 127.93 203.716 A 91.442 91.442 0 0 1 139.596 204.426 A 68.054 68.054 0 0 1 150.293 206.646 A 35.699 35.699 0 0 1 166.895 216.998 A 25.709 25.709 0 0 1 173.386 231.554 A 34.644 34.644 0 0 1 173.633 235.748 A 25.855 25.855 0 0 1 171.057 247.444 Q 167.469 254.638 158.887 259.185 A 61.164 61.164 0 0 1 144.358 264.526 Q 133.972 266.998 120.898 266.998 A 179.494 179.494 0 0 1 100.959 265.965 Q 79.887 263.602 66.741 255.835 A 52.943 52.943 0 0 1 65.82 255.279 L 77.148 246.685 A 43.449 43.449 0 0 0 85.603 249.671 Q 94.339 251.89 107.505 252.6 A 249.442 249.442 0 0 0 120.898 252.935 A 131.355 131.355 0 0 0 133.548 252.38 Q 159.57 249.847 159.57 235.748 A 17.177 17.177 0 0 0 158.46 229.42 Q 156.412 224.207 150.586 221.294 Q 143.201 217.602 132.516 216.945 A 77.919 77.919 0 0 0 127.734 216.802 A 147.863 147.863 0 0 0 114.582 217.349 Q 108.333 217.909 103.076 219.042 A 59.295 59.295 0 0 0 93.555 221.88 Z M 811.719 281.255 L 621.094 281.255 L 621.094 267.193 L 811.719 267.193 L 811.719 281.255 Z M 811.719 309.38 L 621.094 309.38 L 621.094 295.318 L 811.719 295.318 L 811.719 309.38 Z M 811.719 337.505 L 621.094 337.505 L 621.094 323.443 L 811.719 323.443 L 811.719 337.505 Z" vector-effect="non-scaling-stroke" class="nTLZsjkK_0"></path></g><style data-made-with="vivus-instant">.nTLZsjkK_0{stroke-dasharray:15462 15464;stroke-dashoffset:15463;animation:nTLZsjkK_draw_0 30400ms linear 0ms infinite,nTLZsjkK_fade 30400ms linear 0ms infinite;}@keyframes nTLZsjkK_draw{100%{stroke-dashoffset:0;}}@keyframes nTLZsjkK_fade{0%{stroke-opacity:1;}98.6842105263158%{stroke-opacity:1;}100%{stroke-opacity:0;}}@keyframes nTLZsjkK_draw_0{0%{stroke-dashoffset: 15463}65.78947368421053%{ stroke-dashoffset: 0;}100%{ stroke-dashoffset: 0;}}</style></svg>