<svg width="838.288" height="351.573" viewBox="0 0 838.288 351.573" xmlns="http://www.w3.org/2000/svg" style=""><g id="svgGroup" stroke-linecap="round" fill-rule="evenodd" font-size="9pt" stroke="#000" stroke-width="0.25mm" fill="none" style="stroke:#1fa400;stroke-width:0.75mm;fill:none"><path color="#1fa400" stroke-width="4" d="M 13.867 70.318 L 227.734 70.318 L 227.734 84.38 L 84.18 84.38 L 84.18 220.708 L 70.117 220.708 L 70.117 84.38 L 56.055 84.38 L 56.055 220.708 L 41.992 220.708 L 41.992 84.38 L 27.93 84.38 L 27.93 220.708 L 13.867 220.708 L 13.867 70.318 Z M 93.555 139.849 L 93.555 125.396 Q 108.434 123.27 127.915 122.797 A 475.45 475.45 0 0 1 139.453 122.662 A 125.668 125.668 0 0 1 184.18 130.767 A 122.76 122.76 0 0 1 222.054 153.214 A 113.628 113.628 0 0 1 222.07 153.228 Q 238.477 167.583 248.242 189.068 A 110.546 110.546 0 0 1 257.96 232.223 A 128.04 128.04 0 0 1 258.008 235.748 A 104.379 104.379 0 0 1 247.168 282.916 Q 236.328 304.693 217.773 319.634 A 133.802 133.802 0 0 1 186.261 338.366 A 159.892 159.892 0 0 1 174.121 342.974 A 165.555 165.555 0 0 1 124.402 351.34 A 186.506 186.506 0 0 1 120.898 351.373 A 205.868 205.868 0 0 1 71.226 345.534 A 183.683 183.683 0 0 1 52.832 339.947 A 161.068 161.068 0 0 1 20.591 324.219 A 133.382 133.382 0 0 1 0 308.013 L 11.328 299.615 A 124.555 124.555 0 0 0 42.2 320.442 A 156.444 156.444 0 0 0 59.277 327.447 A 183.081 183.081 0 0 0 108.675 336.963 A 213.047 213.047 0 0 0 120.898 337.31 A 155.115 155.115 0 0 0 163.686 331.5 A 144.929 144.929 0 0 0 168.652 329.986 A 134.05 134.05 0 0 0 193.934 318.92 A 113.307 113.307 0 0 0 207.812 309.576 Q 224.414 296.49 234.18 277.349 Q 243.945 258.208 243.945 235.748 A 96.406 96.406 0 0 0 235.548 195.616 A 94.301 94.301 0 0 0 234.961 194.341 A 96.4 96.4 0 0 0 220.041 171.345 A 86.632 86.632 0 0 0 211.133 162.603 Q 196.289 150.005 177.441 142.974 A 110.065 110.065 0 0 0 138.672 135.943 Q 128.516 135.943 121.68 136.431 Q 115.298 136.887 107.384 138.024 A 286.333 286.333 0 0 0 106.25 138.189 A 577.068 577.068 0 0 1 102.234 138.769 Q 96.766 139.537 93.705 139.835 A 77.919 77.919 0 0 1 93.555 139.849 Z M 283.236 205.403 A 188.868 188.868 0 0 0 301.758 267.583 A 180.016 180.016 0 0 0 306.041 275.567 A 148.491 148.491 0 0 0 357.617 329.693 A 144.802 144.802 0 0 0 382.514 341.921 A 155.27 155.27 0 0 0 437.695 351.568 A 177.971 177.971 0 0 0 443.227 351.482 A 148.473 148.473 0 0 0 517.773 329.693 A 143.799 143.799 0 0 0 543.22 309.802 A 158.862 158.862 0 0 0 573.633 267.583 A 181.985 181.985 0 0 0 588.255 227.197 A 223.371 223.371 0 0 0 593.945 175.787 A 238.472 238.472 0 0 0 592.155 146.17 A 188.868 188.868 0 0 0 573.633 83.99 A 180.016 180.016 0 0 0 569.35 76.007 A 148.491 148.491 0 0 0 517.773 21.88 A 144.802 144.802 0 0 0 492.876 9.652 A 155.27 155.27 0 0 0 437.695 0.005 A 177.971 177.971 0 0 0 432.164 0.091 A 148.473 148.473 0 0 0 357.617 21.88 A 143.799 143.799 0 0 0 332.171 41.772 A 158.862 158.862 0 0 0 301.758 83.99 A 181.985 181.985 0 0 0 287.136 124.377 A 223.371 223.371 0 0 0 281.445 175.787 A 238.472 238.472 0 0 0 283.236 205.403 Z M 715.039 141.216 L 669.336 141.216 L 669.336 127.154 L 715.82 127.154 A 134.918 134.918 0 0 1 762.012 135.162 A 131.614 131.614 0 0 1 793.993 151.769 A 120.975 120.975 0 0 1 801.074 157.232 A 103.082 103.082 0 0 1 827.158 190.337 A 118.578 118.578 0 0 1 828.125 192.291 A 102.901 102.901 0 0 1 838.281 237.701 A 109.372 109.372 0 0 1 830.702 278.698 A 103.312 103.312 0 0 1 821.094 297.076 A 113.175 113.175 0 0 1 774.902 337.31 A 142.01 142.01 0 0 1 720.119 351.125 A 168.21 168.21 0 0 1 710.938 351.373 A 409.499 409.499 0 0 1 660.889 348.443 A 314.77 314.77 0 0 1 615.82 339.654 L 618.75 325.591 A 359.251 359.251 0 0 0 710.938 337.31 A 138.699 138.699 0 0 0 747.826 332.542 A 121.707 121.707 0 0 0 767.871 325.103 A 99.831 99.831 0 0 0 808.887 289.947 A 91.412 91.412 0 0 0 824.195 239.98 A 110.567 110.567 0 0 0 824.219 237.701 Q 824.219 216.216 814.844 197.759 A 92.337 92.337 0 0 0 793.419 169.84 A 88.839 88.839 0 0 0 790.137 167.095 A 117.941 117.941 0 0 0 755.883 148.267 A 132.317 132.317 0 0 0 755.273 148.052 A 120.938 120.938 0 0 0 715.039 141.216 Z M 306.25 109.673 A 189.216 189.216 0 0 0 296.179 158.251 A 225.257 225.257 0 0 0 295.508 175.787 A 208.487 208.487 0 0 0 300.025 219.881 A 179.699 179.699 0 0 0 306.25 241.9 A 165.609 165.609 0 0 0 320.661 272.678 A 135.216 135.216 0 0 0 335.84 293.169 A 132.941 132.941 0 0 0 380.957 325.787 A 137.203 137.203 0 0 0 435.78 337.494 A 157.418 157.418 0 0 0 437.695 337.505 A 139.372 139.372 0 0 0 486.122 329.163 A 132.563 132.563 0 0 0 494.434 325.787 A 132.941 132.941 0 0 0 539.551 293.169 A 140.849 140.849 0 0 0 561.531 260.171 A 175.972 175.972 0 0 0 569.141 241.9 A 189.216 189.216 0 0 0 579.211 193.322 A 225.257 225.257 0 0 0 579.883 175.787 A 208.487 208.487 0 0 0 575.366 131.692 A 179.699 179.699 0 0 0 569.141 109.673 A 165.609 165.609 0 0 0 554.73 78.895 A 135.216 135.216 0 0 0 539.551 58.404 A 132.941 132.941 0 0 0 494.434 25.787 A 137.203 137.203 0 0 0 439.61 14.079 A 157.418 157.418 0 0 0 437.695 14.068 A 139.372 139.372 0 0 0 389.269 22.411 A 132.563 132.563 0 0 0 380.957 25.787 A 132.941 132.941 0 0 0 335.84 58.404 A 140.849 140.849 0 0 0 313.859 91.402 A 175.972 175.972 0 0 0 306.25 109.673 Z M 563.78 146.155 A 160.248 160.248 0 0 0 549.316 98.15 A 147.519 147.519 0 0 0 543.851 88 A 120.327 120.327 0 0 0 503.711 46.294 A 116.982 116.982 0 0 0 480.536 35.137 A 128.167 128.167 0 0 0 437.695 28.13 A 145.752 145.752 0 0 0 430.843 28.29 A 120.471 120.471 0 0 0 371.68 46.294 Q 342.578 64.458 326.074 98.15 Q 309.57 131.841 309.57 175.787 A 208.057 208.057 0 0 0 311.61 205.418 A 160.248 160.248 0 0 0 326.074 253.423 A 147.519 147.519 0 0 0 331.539 263.573 A 120.327 120.327 0 0 0 371.68 305.279 A 116.982 116.982 0 0 0 394.855 316.436 A 128.167 128.167 0 0 0 437.695 323.443 A 145.752 145.752 0 0 0 444.548 323.283 A 120.471 120.471 0 0 0 503.711 305.279 Q 532.813 287.115 549.316 253.423 Q 565.82 219.732 565.82 175.787 A 208.057 208.057 0 0 0 563.78 146.155 Z M 93.555 166.802 L 93.555 152.544 A 434.465 434.465 0 0 1 115.186 150.64 A 319.024 319.024 0 0 1 134.766 150.005 A 107.422 107.422 0 0 1 171.368 156.158 A 100.711 100.711 0 0 1 182.52 160.943 A 86.723 86.723 0 0 1 217.09 191.607 Q 229.883 211.333 229.883 235.748 A 76.37 76.37 0 0 1 215.137 281.939 A 91.533 91.533 0 0 1 180.229 310.638 A 109.699 109.699 0 0 1 175.684 312.701 A 132.118 132.118 0 0 1 135.826 322.568 A 160.719 160.719 0 0 1 120.898 323.248 A 185.37 185.37 0 0 1 83.271 319.547 A 160.313 160.313 0 0 1 65.039 314.654 A 135.59 135.59 0 0 1 40.35 303.731 A 107.762 107.762 0 0 1 21.875 290.435 L 32.813 281.646 Q 48.438 294.927 71.387 302.056 A 159.829 159.829 0 0 0 107.843 308.74 A 188.392 188.392 0 0 0 120.898 309.185 Q 161.328 309.185 188.574 289.166 Q 215.101 269.675 215.801 237.503 A 80.604 80.604 0 0 0 215.82 235.748 Q 215.82 213.091 204.199 196.294 Q 192.578 179.498 174.414 171.49 A 95.114 95.114 0 0 0 143.109 163.812 A 113.719 113.719 0 0 0 134.375 163.482 A 251.846 251.846 0 0 0 106.077 165.016 A 213.917 213.917 0 0 0 93.555 166.802 Z M 714.648 169.341 L 669.336 169.341 L 669.336 155.279 L 715.039 155.279 A 106.9 106.9 0 0 1 756.466 163.284 A 103.154 103.154 0 0 1 762.695 166.119 A 90.267 90.267 0 0 1 789.208 185.678 A 84.941 84.941 0 0 1 797.363 196.001 Q 810.156 215.044 810.156 237.701 A 81.284 81.284 0 0 1 804.76 267.568 A 76.108 76.108 0 0 1 796.68 282.818 Q 783.203 302.544 760.742 312.896 A 113.519 113.519 0 0 1 722.667 322.752 A 136.574 136.574 0 0 1 710.938 323.248 A 368.129 368.129 0 0 1 659.196 319.762 A 291.586 291.586 0 0 1 621.484 311.919 L 624.414 297.857 A 329.291 329.291 0 0 0 710.938 309.185 A 112.326 112.326 0 0 0 739.469 305.726 A 86.122 86.122 0 0 0 771.68 289.751 A 62.126 62.126 0 0 0 795.802 244.678 A 81.743 81.743 0 0 0 796.094 237.701 Q 796.094 206.646 772.168 187.994 A 88.078 88.078 0 0 0 724.973 169.802 A 113.364 113.364 0 0 0 714.648 169.341 Z M 355.371 78.716 A 124.832 124.832 0 0 0 328.476 132.15 Q 323.935 150.886 323.652 172.845 A 227.683 227.683 0 0 0 323.633 175.787 A 187.462 187.462 0 0 0 327.912 217.012 Q 334.592 246.66 351.699 268.415 A 117.445 117.445 0 0 0 355.371 272.857 Q 387.109 309.38 437.695 309.38 A 113.732 113.732 0 0 0 479.505 301.946 A 103.054 103.054 0 0 0 520.02 272.857 A 124.832 124.832 0 0 0 546.915 219.423 Q 551.455 200.687 551.739 178.729 A 227.683 227.683 0 0 0 551.758 175.787 A 187.462 187.462 0 0 0 547.479 134.562 Q 540.799 104.913 523.692 83.158 A 117.445 117.445 0 0 0 520.02 78.716 Q 488.281 42.193 437.695 42.193 A 113.732 113.732 0 0 0 395.886 49.627 A 103.054 103.054 0 0 0 355.371 78.716 Z M 532.777 133.607 A 110.633 110.633 0 0 0 510.059 88.677 A 89.314 89.314 0 0 0 473.56 62.461 A 100.018 100.018 0 0 0 437.695 56.255 A 118.061 118.061 0 0 0 430.726 56.458 A 89.406 89.406 0 0 0 365.332 88.677 Q 337.695 121.099 337.695 175.787 A 209.387 209.387 0 0 0 337.777 181.669 Q 338.329 201.321 342.614 217.966 A 110.633 110.633 0 0 0 365.332 262.896 A 89.314 89.314 0 0 0 401.831 289.112 A 100.018 100.018 0 0 0 437.695 295.318 A 118.061 118.061 0 0 0 444.664 295.115 A 89.406 89.406 0 0 0 510.059 262.896 Q 537.695 230.474 537.695 175.787 A 209.387 209.387 0 0 0 537.614 169.904 Q 537.061 150.252 532.777 133.607 Z M 822.852 171.294 L 812.695 160.748 A 91.945 91.945 0 0 0 824.219 115.63 A 99.255 99.255 0 0 0 818.003 80.189 A 92.273 92.273 0 0 0 808.887 62.31 A 99.989 99.989 0 0 0 767.871 26.47 Q 742.188 14.068 710.938 14.068 Q 663.086 14.068 618.75 25.787 L 615.82 11.724 A 319.739 319.739 0 0 1 666.872 2.248 A 416.618 416.618 0 0 1 710.938 0.005 A 145.438 145.438 0 0 1 758.942 7.871 A 138.833 138.833 0 0 1 760.449 8.404 A 131.489 131.489 0 0 1 789.634 23.044 A 117.19 117.19 0 0 1 800.977 31.744 A 107.844 107.844 0 0 1 828.144 68.292 A 123.238 123.238 0 0 1 828.223 68.462 A 110.735 110.735 0 0 1 838.271 114.047 A 127.342 127.342 0 0 1 838.281 115.63 A 103.871 103.871 0 0 1 822.852 171.294 Z M 93.555 194.732 L 93.555 179.888 Q 115.836 177.171 129.549 176.974 A 145.662 145.662 0 0 1 131.641 176.958 A 90.807 90.807 0 0 1 156.366 180.187 A 72.986 72.986 0 0 1 181.348 192.681 A 50.39 50.39 0 0 1 201.478 229.498 A 68.159 68.159 0 0 1 201.758 235.748 Q 201.758 263.287 178.711 279.205 A 87.042 87.042 0 0 1 147.219 292.494 Q 135.026 295.123 120.898 295.123 A 177.726 177.726 0 0 1 90.905 292.754 Q 62.37 287.86 43.945 272.857 L 55.078 264.263 Q 72.835 277.096 101.879 280.125 A 183.64 183.64 0 0 0 120.898 281.06 Q 149.805 281.06 168.75 269.146 A 43.504 43.504 0 0 0 180.109 259.106 Q 187.34 249.801 187.679 237.014 A 47.782 47.782 0 0 0 187.695 235.748 A 46.404 46.404 0 0 0 185.412 220.827 A 37.572 37.572 0 0 0 171.289 202.056 A 62.078 62.078 0 0 0 144.073 191.174 A 82.461 82.461 0 0 0 131.445 190.24 A 161.358 161.358 0 0 0 107.02 192.174 A 196.364 196.364 0 0 0 93.555 194.732 Z M 713.672 197.466 L 669.336 197.466 L 669.336 183.404 L 713.867 183.404 Q 742.188 183.404 762.109 198.15 Q 782.031 212.896 782.031 237.701 A 56.453 56.453 0 0 1 778.711 257.469 A 49.042 49.042 0 0 1 761.719 279.791 A 74.526 74.526 0 0 1 730.263 293.392 A 103.265 103.265 0 0 1 710.938 295.123 Q 665.241 295.123 629.586 285.264 A 222.573 222.573 0 0 1 627.148 284.576 L 629.883 270.904 A 258.125 258.125 0 0 0 670.56 278.828 A 348.883 348.883 0 0 0 710.938 281.06 A 87.253 87.253 0 0 0 729.215 279.246 Q 742.006 276.508 751.758 269.634 A 36.211 36.211 0 0 0 767.63 243.439 A 47.343 47.343 0 0 0 767.969 237.701 Q 767.969 220.106 754.239 209.671 A 44.429 44.429 0 0 0 752.051 208.111 A 62.371 62.371 0 0 0 727.111 198.512 A 83.24 83.24 0 0 0 713.672 197.466 Z M 375.293 98.541 Q 351.758 126.763 351.758 175.787 A 164.886 164.886 0 0 0 354.531 206.991 Q 358.013 225.042 365.866 239.23 A 88.141 88.141 0 0 0 375.293 253.033 A 76.017 76.017 0 0 0 430.542 281.007 A 101.43 101.43 0 0 0 437.695 281.255 A 86.566 86.566 0 0 0 467.761 276.232 A 75.662 75.662 0 0 0 500.098 253.033 Q 523.633 224.81 523.633 175.787 A 164.886 164.886 0 0 0 520.86 144.582 Q 517.378 126.531 509.524 112.343 A 88.141 88.141 0 0 0 500.098 98.541 A 76.017 76.017 0 0 0 444.848 70.566 A 101.43 101.43 0 0 0 437.695 70.318 A 86.566 86.566 0 0 0 407.63 75.341 A 75.662 75.662 0 0 0 375.293 98.541 Z M 801.953 150.982 L 790.43 143.951 A 72.36 72.36 0 0 0 796.094 115.63 A 73.665 73.665 0 0 0 791.769 89.886 A 64.271 64.271 0 0 0 771.68 62.212 A 87.353 87.353 0 0 0 728.357 43.444 A 117.308 117.308 0 0 0 710.938 42.193 Q 666.211 42.193 624.414 53.521 L 621.484 39.458 A 302.283 302.283 0 0 1 673.949 29.859 A 383.57 383.57 0 0 1 710.937 28.13 A 122.774 122.774 0 0 1 743.186 32.244 A 107.24 107.24 0 0 1 760.742 38.677 Q 783.203 49.224 796.68 69.439 A 80.643 80.643 0 0 1 810.104 112.406 A 98.118 98.118 0 0 1 810.156 115.63 A 77.952 77.952 0 0 1 801.953 150.982 Z M 504.404 136.337 A 80.941 80.941 0 0 0 490.137 108.501 A 62.154 62.154 0 0 0 462.274 88.361 A 72.756 72.756 0 0 0 437.695 84.38 A 85.001 85.001 0 0 0 431.131 84.629 A 62.677 62.677 0 0 0 385.254 108.501 A 75.369 75.369 0 0 0 375.798 123.706 Q 365.82 144.857 365.82 175.787 A 172.164 172.164 0 0 0 366.338 189.364 Q 367.455 203.483 370.987 215.237 A 80.941 80.941 0 0 0 385.254 243.072 A 62.154 62.154 0 0 0 413.117 263.212 A 72.756 72.756 0 0 0 437.695 267.193 A 85.001 85.001 0 0 0 444.26 266.944 A 62.677 62.677 0 0 0 490.137 243.072 A 75.369 75.369 0 0 0 499.592 227.868 Q 509.57 206.716 509.57 175.787 A 172.164 172.164 0 0 0 509.053 162.209 Q 507.936 148.09 504.404 136.337 Z M 13.867 42.193 L 227.734 42.193 L 227.734 56.255 L 13.867 56.255 L 13.867 42.193 Z M 13.867 14.068 L 227.734 14.068 L 227.734 28.13 L 13.867 28.13 L 13.867 14.068 Z M 632.617 257.623 L 635.352 244.537 A 147.924 147.924 0 0 0 654.314 248.965 Q 674.242 252.377 701.737 252.857 A 527.606 527.606 0 0 0 710.938 252.935 A 82.138 82.138 0 0 0 720.669 252.411 Q 730.496 251.231 735.287 247.396 A 11.795 11.795 0 0 0 739.844 237.701 Q 739.844 225.661 712.236 225.592 A 127.698 127.698 0 0 0 711.914 225.591 L 669.336 225.591 L 669.336 211.529 L 712.109 211.529 A 85.601 85.601 0 0 1 724.734 212.408 Q 731.48 213.415 737.107 215.576 A 46.009 46.009 0 0 1 741.992 217.779 Q 752.581 223.334 753.759 234.751 A 28.741 28.741 0 0 1 753.906 237.701 Q 753.906 251.836 742.721 259.151 A 30.908 30.908 0 0 1 741.895 259.673 Q 729.883 266.998 710.938 266.998 A 370.471 370.471 0 0 1 676.152 265.45 Q 658.293 263.763 642.849 260.236 A 202.302 202.302 0 0 1 632.617 257.623 Z M 395.215 118.365 A 65.746 65.746 0 0 0 384.87 138.731 Q 381.928 147.973 380.722 159.205 A 155.48 155.48 0 0 0 379.883 175.787 A 147.056 147.056 0 0 0 381.38 197.508 Q 384.674 219.512 395.215 233.208 A 49.378 49.378 0 0 0 431.093 252.819 A 68.373 68.373 0 0 0 437.695 253.13 A 59.236 59.236 0 0 0 456.926 250.151 A 48.787 48.787 0 0 0 480.176 233.208 A 65.746 65.746 0 0 0 490.521 212.843 Q 493.462 203.6 494.669 192.369 A 155.48 155.48 0 0 0 495.508 175.787 A 147.056 147.056 0 0 0 494.011 154.066 Q 490.717 132.061 480.176 118.365 A 49.378 49.378 0 0 0 444.298 98.754 A 68.373 68.373 0 0 0 437.695 98.443 A 59.236 59.236 0 0 0 418.465 101.422 A 48.787 48.787 0 0 0 395.215 118.365 Z M 629.883 80.474 L 627.148 66.802 Q 662.531 56.585 707.994 56.266 A 419.154 419.154 0 0 1 710.938 56.255 A 96.155 96.155 0 0 1 734.633 59.036 A 72.102 72.102 0 0 1 761.719 72.173 A 51.197 51.197 0 0 1 781.779 109.643 A 69.742 69.742 0 0 1 782.031 115.63 A 59.836 59.836 0 0 1 777.868 137.359 A 67.651 67.651 0 0 1 777.734 137.701 L 764.648 132.427 A 37.917 37.917 0 0 0 767.611 121.572 A 47.989 47.989 0 0 0 767.969 115.63 A 45.498 45.498 0 0 0 765.593 100.584 A 37.945 37.945 0 0 0 751.758 82.232 Q 735.547 70.318 710.938 70.318 A 346.348 346.348 0 0 0 668.651 72.778 A 256.383 256.383 0 0 0 629.883 80.474 Z M 93.555 221.88 L 93.555 207.818 A 145.996 145.996 0 0 1 127.93 203.716 A 91.442 91.442 0 0 1 139.596 204.426 A 68.054 68.054 0 0 1 150.293 206.646 A 35.699 35.699 0 0 1 166.895 216.998 A 25.709 25.709 0 0 1 173.386 231.554 A 34.644 34.644 0 0 1 173.633 235.748 A 25.855 25.855 0 0 1 171.057 247.444 Q 167.469 254.638 158.887 259.185 A 61.164 61.164 0 0 1 144.358 264.526 Q 133.972 266.998 120.898 266.998 A 179.494 179.494 0 0 1 100.959 265.965 Q 79.887 263.602 66.741 255.835 A 52.943 52.943 0 0 1 65.82 255.279 L 77.148 246.685 A 43.449 43.449 0 0 0 85.603 249.671 Q 94.339 251.89 107.505 252.6 A 249.442 249.442 0 0 0 120.898 252.935 A 131.355 131.355 0 0 0 133.548 252.38 Q 159.57 249.847 159.57 235.748 A 17.177 17.177 0 0 0 158.46 229.42 Q 156.412 224.207 150.586 221.294 Q 143.201 217.602 132.516 216.945 A 77.919 77.919 0 0 0 127.734 216.802 A 147.863 147.863 0 0 0 114.582 217.349 Q 108.333 217.909 103.076 219.042 A 59.295 59.295 0 0 0 93.555 221.88 Z M 751.563 128.326 L 738.086 125.396 A 9.25 9.25 0 0 0 738.975 123.312 Q 739.645 121.094 739.798 117.728 A 46.185 46.185 0 0 0 739.844 115.63 A 14.229 14.229 0 0 0 731.322 102.033 Q 724.988 98.863 713.948 98.492 A 89.66 89.66 0 0 0 710.937 98.443 A 456.159 456.159 0 0 0 683.315 99.223 Q 654.092 101.002 635.352 106.841 L 632.617 93.755 A 227.936 227.936 0 0 1 663.854 87.347 Q 680.05 85.122 698.437 84.566 A 413.528 413.528 0 0 1 710.938 84.38 A 75.379 75.379 0 0 1 723.916 85.434 Q 734.293 87.249 741.895 92.193 Q 753.906 100.005 753.906 115.63 A 48.712 48.712 0 0 1 753.721 120.03 Q 753.247 125.237 751.563 128.326 Z" vector-effect="non-scaling-stroke" class="zRNWNoWv_0"></path></g><style data-made-with="vivus-instant">.zRNWNoWv_0{stroke-dasharray:16062 16064;stroke-dashoffset:16063;animation:zRNWNoWv_draw_0 30400ms linear 0ms infinite,zRNWNoWv_fade 30400ms linear 0ms infinite;}@keyframes zRNWNoWv_draw{100%{stroke-dashoffset:0;}}@keyframes zRNWNoWv_fade{0%{stroke-opacity:1;}98.6842105263158%{stroke-opacity:1;}100%{stroke-opacity:0;}}@keyframes zRNWNoWv_draw_0{0%{stroke-dashoffset: 16063}65.78947368421053%{ stroke-dashoffset: 0;}100%{ stroke-dashoffset: 0;}}</style></svg>