<svg width="805.671" height="351.573" viewBox="0 0 805.671 351.573" xmlns="http://www.w3.org/2000/svg" style=""><g id="svgGroup" stroke-linecap="round" fill-rule="evenodd" font-size="9pt" stroke="#000" stroke-width="0.25mm" fill="none" style="stroke:#A68600FF;stroke-width:0.25mm;fill:none"><path color="#A68600FF" stroke-width="4" d="M 250.618 205.403 A 188.868 188.868 0 0 0 269.141 267.583 A 180.016 180.016 0 0 0 273.424 275.567 A 148.491 148.491 0 0 0 325 329.693 A 144.802 144.802 0 0 0 349.897 341.921 A 155.27 155.27 0 0 0 405.078 351.568 A 177.971 177.971 0 0 0 410.609 351.482 A 148.473 148.473 0 0 0 485.156 329.693 A 143.799 143.799 0 0 0 510.603 309.802 A 158.862 158.862 0 0 0 541.016 267.583 A 181.985 181.985 0 0 0 555.637 227.197 A 223.371 223.371 0 0 0 561.328 175.787 A 238.472 238.472 0 0 0 559.538 146.17 A 188.868 188.868 0 0 0 541.016 83.99 A 180.016 180.016 0 0 0 536.733 76.007 A 148.491 148.491 0 0 0 485.156 21.88 A 144.802 144.802 0 0 0 460.259 9.652 A 155.27 155.27 0 0 0 405.078 0.005 A 177.971 177.971 0 0 0 399.547 0.091 A 148.473 148.473 0 0 0 325 21.88 A 143.799 143.799 0 0 0 299.554 41.772 A 158.862 158.862 0 0 0 269.141 83.99 A 181.985 181.985 0 0 0 254.519 124.377 A 223.371 223.371 0 0 0 248.828 175.787 A 238.472 238.472 0 0 0 250.618 205.403 Z M 682.422 141.216 L 636.719 141.216 L 636.719 127.154 L 683.203 127.154 A 134.918 134.918 0 0 1 729.395 135.162 A 131.614 131.614 0 0 1 761.376 151.769 A 120.975 120.975 0 0 1 768.457 157.232 A 103.082 103.082 0 0 1 794.541 190.337 A 118.578 118.578 0 0 1 795.508 192.291 A 102.901 102.901 0 0 1 805.664 237.701 A 109.372 109.372 0 0 1 798.085 278.698 A 103.312 103.312 0 0 1 788.477 297.076 A 113.175 113.175 0 0 1 742.285 337.31 A 142.01 142.01 0 0 1 687.502 351.125 A 168.21 168.21 0 0 1 678.32 351.373 A 409.499 409.499 0 0 1 628.271 348.443 A 314.77 314.77 0 0 1 583.203 339.654 L 586.133 325.591 A 359.251 359.251 0 0 0 678.32 337.31 A 138.699 138.699 0 0 0 715.208 332.542 A 121.707 121.707 0 0 0 735.254 325.103 A 99.831 99.831 0 0 0 776.27 289.947 A 91.412 91.412 0 0 0 791.578 239.98 A 110.567 110.567 0 0 0 791.602 237.701 Q 791.602 216.216 782.227 197.759 A 92.337 92.337 0 0 0 760.802 169.84 A 88.839 88.839 0 0 0 757.52 167.095 A 117.941 117.941 0 0 0 723.266 148.267 A 132.317 132.317 0 0 0 722.656 148.052 A 120.938 120.938 0 0 0 682.422 141.216 Z M 273.633 109.673 A 189.216 189.216 0 0 0 263.562 158.251 A 225.257 225.257 0 0 0 262.891 175.787 A 208.487 208.487 0 0 0 267.407 219.881 A 179.699 179.699 0 0 0 273.633 241.9 A 165.609 165.609 0 0 0 288.044 272.678 A 135.216 135.216 0 0 0 303.223 293.169 A 132.941 132.941 0 0 0 348.34 325.787 A 137.203 137.203 0 0 0 403.163 337.494 A 157.418 157.418 0 0 0 405.078 337.505 A 139.372 139.372 0 0 0 453.505 329.163 A 132.563 132.563 0 0 0 461.816 325.787 A 132.941 132.941 0 0 0 506.934 293.169 A 140.849 140.849 0 0 0 528.914 260.171 A 175.972 175.972 0 0 0 536.523 241.9 A 189.216 189.216 0 0 0 546.594 193.322 A 225.257 225.257 0 0 0 547.266 175.787 A 208.487 208.487 0 0 0 542.749 131.692 A 179.699 179.699 0 0 0 536.523 109.673 A 165.609 165.609 0 0 0 522.112 78.895 A 135.216 135.216 0 0 0 506.934 58.404 A 132.941 132.941 0 0 0 461.816 25.787 A 137.203 137.203 0 0 0 406.993 14.079 A 157.418 157.418 0 0 0 405.078 14.068 A 139.372 139.372 0 0 0 356.652 22.411 A 132.563 132.563 0 0 0 348.34 25.787 A 132.941 132.941 0 0 0 303.223 58.404 A 140.849 140.849 0 0 0 281.242 91.402 A 175.972 175.972 0 0 0 273.633 109.673 Z M 531.163 146.155 A 160.248 160.248 0 0 0 516.699 98.15 A 147.519 147.519 0 0 0 511.234 88 A 120.327 120.327 0 0 0 471.094 46.294 A 116.982 116.982 0 0 0 447.919 35.137 A 128.167 128.167 0 0 0 405.078 28.13 A 145.752 145.752 0 0 0 398.225 28.29 A 120.471 120.471 0 0 0 339.062 46.294 Q 309.961 64.458 293.457 98.15 Q 276.953 131.841 276.953 175.787 A 208.057 208.057 0 0 0 278.993 205.418 A 160.248 160.248 0 0 0 293.457 253.423 A 147.519 147.519 0 0 0 298.922 263.573 A 120.327 120.327 0 0 0 339.063 305.279 A 116.982 116.982 0 0 0 362.238 316.436 A 128.167 128.167 0 0 0 405.078 323.443 A 145.752 145.752 0 0 0 411.931 323.283 A 120.471 120.471 0 0 0 471.094 305.279 Q 500.195 287.115 516.699 253.423 Q 533.203 219.732 533.203 175.787 A 208.057 208.057 0 0 0 531.163 146.155 Z M 682.031 169.341 L 636.719 169.341 L 636.719 155.279 L 682.422 155.279 A 106.9 106.9 0 0 1 723.849 163.284 A 103.154 103.154 0 0 1 730.078 166.119 A 90.267 90.267 0 0 1 756.591 185.678 A 84.941 84.941 0 0 1 764.746 196.001 Q 777.539 215.044 777.539 237.701 A 81.284 81.284 0 0 1 772.142 267.568 A 76.108 76.108 0 0 1 764.062 282.818 Q 750.586 302.544 728.125 312.896 A 113.519 113.519 0 0 1 690.05 322.752 A 136.574 136.574 0 0 1 678.32 323.248 A 368.129 368.129 0 0 1 626.579 319.762 A 291.586 291.586 0 0 1 588.867 311.919 L 591.797 297.857 A 329.291 329.291 0 0 0 678.32 309.185 A 112.326 112.326 0 0 0 706.852 305.726 A 86.122 86.122 0 0 0 739.063 289.751 A 62.126 62.126 0 0 0 763.184 244.678 A 81.743 81.743 0 0 0 763.477 237.701 Q 763.477 206.646 739.551 187.994 A 88.078 88.078 0 0 0 692.356 169.802 A 113.364 113.364 0 0 0 682.031 169.341 Z M 322.754 78.716 A 124.832 124.832 0 0 0 295.859 132.15 Q 291.318 150.886 291.035 172.845 A 227.683 227.683 0 0 0 291.016 175.787 A 187.462 187.462 0 0 0 295.295 217.012 Q 301.975 246.66 319.081 268.415 A 117.445 117.445 0 0 0 322.754 272.857 Q 354.492 309.38 405.078 309.38 A 113.732 113.732 0 0 0 446.887 301.946 A 103.054 103.054 0 0 0 487.402 272.857 A 124.832 124.832 0 0 0 514.298 219.423 Q 518.838 200.687 519.122 178.729 A 227.683 227.683 0 0 0 519.141 175.787 A 187.462 187.462 0 0 0 514.861 134.562 Q 508.182 104.913 491.075 83.158 A 117.445 117.445 0 0 0 487.402 78.716 Q 455.664 42.193 405.078 42.193 A 113.732 113.732 0 0 0 363.269 49.627 A 103.054 103.054 0 0 0 322.754 78.716 Z M 500.159 133.607 A 110.633 110.633 0 0 0 477.441 88.677 A 89.314 89.314 0 0 0 440.943 62.461 A 100.018 100.018 0 0 0 405.078 56.255 A 118.061 118.061 0 0 0 398.109 56.458 A 89.406 89.406 0 0 0 332.715 88.677 Q 305.078 121.099 305.078 175.787 A 209.387 209.387 0 0 0 305.16 181.669 Q 305.712 201.321 309.997 217.966 A 110.633 110.633 0 0 0 332.715 262.896 A 89.314 89.314 0 0 0 369.213 289.112 A 100.018 100.018 0 0 0 405.078 295.318 A 118.061 118.061 0 0 0 412.047 295.115 A 89.406 89.406 0 0 0 477.441 262.896 Q 505.078 230.474 505.078 175.787 A 209.387 209.387 0 0 0 504.996 169.904 Q 504.444 150.252 500.159 133.607 Z M 790.234 171.294 L 780.078 160.748 A 91.945 91.945 0 0 0 791.602 115.63 A 99.255 99.255 0 0 0 785.386 80.189 A 92.273 92.273 0 0 0 776.27 62.31 A 99.989 99.989 0 0 0 735.254 26.47 Q 709.57 14.068 678.32 14.068 Q 630.469 14.068 586.133 25.787 L 583.203 11.724 A 319.739 319.739 0 0 1 634.255 2.248 A 416.618 416.618 0 0 1 678.32 0.005 A 145.438 145.438 0 0 1 726.325 7.871 A 138.833 138.833 0 0 1 727.832 8.404 A 131.489 131.489 0 0 1 757.016 23.044 A 117.19 117.19 0 0 1 768.359 31.744 A 107.844 107.844 0 0 1 795.527 68.292 A 123.238 123.238 0 0 1 795.605 68.462 A 110.735 110.735 0 0 1 805.654 114.047 A 127.342 127.342 0 0 1 805.664 115.63 A 103.871 103.871 0 0 1 790.234 171.294 Z M 681.055 197.466 L 636.719 197.466 L 636.719 183.404 L 681.25 183.404 Q 709.57 183.404 729.492 198.15 Q 749.414 212.896 749.414 237.701 A 56.453 56.453 0 0 1 746.094 257.469 A 49.042 49.042 0 0 1 729.102 279.791 A 74.526 74.526 0 0 1 697.645 293.392 A 103.265 103.265 0 0 1 678.32 295.123 Q 632.624 295.123 596.968 285.264 A 222.573 222.573 0 0 1 594.531 284.576 L 597.266 270.904 A 258.125 258.125 0 0 0 637.943 278.828 A 348.883 348.883 0 0 0 678.32 281.06 A 87.253 87.253 0 0 0 696.598 279.246 Q 709.389 276.508 719.141 269.634 A 36.211 36.211 0 0 0 735.013 243.439 A 47.343 47.343 0 0 0 735.352 237.701 Q 735.352 220.106 721.622 209.671 A 44.429 44.429 0 0 0 719.434 208.111 A 62.371 62.371 0 0 0 694.494 198.512 A 83.24 83.24 0 0 0 681.055 197.466 Z M 342.676 98.541 Q 319.141 126.763 319.141 175.787 A 164.886 164.886 0 0 0 321.914 206.991 Q 325.396 225.042 333.249 239.23 A 88.141 88.141 0 0 0 342.676 253.033 A 76.017 76.017 0 0 0 397.925 281.007 A 101.43 101.43 0 0 0 405.078 281.255 A 86.566 86.566 0 0 0 435.144 276.232 A 75.662 75.662 0 0 0 467.48 253.033 Q 491.016 224.81 491.016 175.787 A 164.886 164.886 0 0 0 488.243 144.582 Q 484.761 126.531 476.907 112.343 A 88.141 88.141 0 0 0 467.48 98.541 A 76.017 76.017 0 0 0 412.231 70.566 A 101.43 101.43 0 0 0 405.078 70.318 A 86.566 86.566 0 0 0 375.013 75.341 A 75.662 75.662 0 0 0 342.676 98.541 Z M 769.336 150.982 L 757.813 143.951 A 72.36 72.36 0 0 0 763.477 115.63 A 73.665 73.665 0 0 0 759.151 89.886 A 64.271 64.271 0 0 0 739.063 62.212 A 87.353 87.353 0 0 0 695.74 43.444 A 117.308 117.308 0 0 0 678.32 42.193 Q 633.594 42.193 591.797 53.521 L 588.867 39.458 A 302.283 302.283 0 0 1 641.332 29.859 A 383.57 383.57 0 0 1 678.32 28.13 A 122.774 122.774 0 0 1 710.569 32.244 A 107.24 107.24 0 0 1 728.125 38.677 Q 750.586 49.224 764.063 69.439 A 80.643 80.643 0 0 1 777.486 112.406 A 98.118 98.118 0 0 1 777.539 115.63 A 77.952 77.952 0 0 1 769.336 150.982 Z M 471.786 136.337 A 80.941 80.941 0 0 0 457.52 108.501 A 62.154 62.154 0 0 0 429.657 88.361 A 72.756 72.756 0 0 0 405.078 84.38 A 85.001 85.001 0 0 0 398.513 84.629 A 62.677 62.677 0 0 0 352.637 108.501 A 75.369 75.369 0 0 0 343.181 123.706 Q 333.203 144.857 333.203 175.787 A 172.164 172.164 0 0 0 333.72 189.364 Q 334.838 203.483 338.37 215.237 A 80.941 80.941 0 0 0 352.637 243.072 A 62.154 62.154 0 0 0 380.5 263.212 A 72.756 72.756 0 0 0 405.078 267.193 A 85.001 85.001 0 0 0 411.643 266.944 A 62.677 62.677 0 0 0 457.52 243.072 A 75.369 75.369 0 0 0 466.975 227.868 Q 476.953 206.716 476.953 175.787 A 172.164 172.164 0 0 0 476.436 162.209 Q 475.318 148.09 471.786 136.337 Z M 225.391 225.005 L 0.391 225.005 L 0.391 210.943 L 225.391 210.943 L 225.391 225.005 Z M 225.391 253.13 L 0.391 253.13 L 0.391 239.068 L 225.391 239.068 L 225.391 253.13 Z M 225.391 281.255 L 0.391 281.255 L 0.391 267.193 L 225.391 267.193 L 225.391 281.255 Z M 600 257.623 L 602.734 244.537 A 147.924 147.924 0 0 0 621.697 248.965 Q 641.624 252.377 669.119 252.857 A 527.606 527.606 0 0 0 678.32 252.935 A 82.138 82.138 0 0 0 688.052 252.411 Q 697.879 251.231 702.67 247.396 A 11.795 11.795 0 0 0 707.227 237.701 Q 707.227 225.661 679.619 225.592 A 127.698 127.698 0 0 0 679.297 225.591 L 636.719 225.591 L 636.719 211.529 L 679.492 211.529 A 85.601 85.601 0 0 1 692.117 212.408 Q 698.863 213.415 704.49 215.576 A 46.009 46.009 0 0 1 709.375 217.779 Q 719.964 223.334 721.142 234.751 A 28.741 28.741 0 0 1 721.289 237.701 Q 721.289 251.836 710.104 259.151 A 30.908 30.908 0 0 1 709.277 259.673 Q 697.266 266.998 678.32 266.998 A 370.471 370.471 0 0 1 643.535 265.45 Q 625.676 263.763 610.232 260.236 A 202.302 202.302 0 0 1 600 257.623 Z M 0 203.912 L 87.695 14.263 L 103.906 14.068 L 16.406 203.912 L 0 203.912 Z M 31.836 203.912 L 119.727 14.263 L 135.352 14.263 L 48.242 203.912 L 31.836 203.912 Z M 64.453 203.912 L 151.172 14.263 L 167.188 14.263 L 80.859 203.912 L 64.453 203.912 Z M 98.242 203.912 L 183.203 14.263 L 199.414 14.068 L 114.648 203.912 L 98.242 203.912 Z M 362.598 118.365 A 65.746 65.746 0 0 0 352.252 138.731 Q 349.311 147.973 348.105 159.205 A 155.48 155.48 0 0 0 347.266 175.787 A 147.056 147.056 0 0 0 348.763 197.508 Q 352.057 219.512 362.598 233.208 A 49.378 49.378 0 0 0 398.476 252.819 A 68.373 68.373 0 0 0 405.078 253.13 A 59.236 59.236 0 0 0 424.309 250.151 A 48.787 48.787 0 0 0 447.559 233.208 A 65.746 65.746 0 0 0 457.904 212.843 Q 460.845 203.6 462.052 192.369 A 155.48 155.48 0 0 0 462.891 175.787 A 147.056 147.056 0 0 0 461.393 154.066 Q 458.099 132.061 447.559 118.365 A 49.378 49.378 0 0 0 411.681 98.754 A 68.373 68.373 0 0 0 405.078 98.443 A 59.236 59.236 0 0 0 385.848 101.422 A 48.787 48.787 0 0 0 362.598 118.365 Z M 597.266 80.474 L 594.531 66.802 Q 629.913 56.585 675.377 56.266 A 419.154 419.154 0 0 1 678.32 56.255 A 96.155 96.155 0 0 1 702.016 59.036 A 72.102 72.102 0 0 1 729.102 72.173 A 51.197 51.197 0 0 1 749.162 109.643 A 69.742 69.742 0 0 1 749.414 115.63 A 59.836 59.836 0 0 1 745.25 137.359 A 67.651 67.651 0 0 1 745.117 137.701 L 732.031 132.427 A 37.917 37.917 0 0 0 734.994 121.572 A 47.989 47.989 0 0 0 735.352 115.63 A 45.498 45.498 0 0 0 732.976 100.584 A 37.945 37.945 0 0 0 719.141 82.232 Q 702.93 70.318 678.32 70.318 A 346.348 346.348 0 0 0 636.034 72.778 A 256.383 256.383 0 0 0 597.266 80.474 Z M 718.945 128.326 L 705.469 125.396 A 9.25 9.25 0 0 0 706.358 123.312 Q 707.028 121.094 707.181 117.728 A 46.185 46.185 0 0 0 707.227 115.63 A 14.229 14.229 0 0 0 698.705 102.033 Q 692.371 98.863 681.331 98.492 A 89.66 89.66 0 0 0 678.32 98.443 A 456.159 456.159 0 0 0 650.697 99.223 Q 621.475 101.002 602.734 106.841 L 600 93.755 A 227.936 227.936 0 0 1 631.237 87.347 Q 647.433 85.122 665.82 84.566 A 413.528 413.528 0 0 1 678.32 84.38 A 75.379 75.379 0 0 1 691.298 85.434 Q 701.676 87.249 709.277 92.193 Q 721.289 100.005 721.289 115.63 A 48.712 48.712 0 0 1 721.104 120.03 Q 720.63 125.237 718.945 128.326 Z M 175.977 148.052 L 175.977 204.107 L 161.914 204.107 L 161.914 148.052 L 175.977 148.052 Z M 204.102 148.052 L 204.102 204.107 L 190.039 204.107 L 190.039 148.052 L 204.102 148.052 Z M 175.977 288.482 L 175.977 337.505 L 161.914 337.505 L 161.914 288.482 L 175.977 288.482 Z M 204.102 288.482 L 204.102 337.505 L 190.039 337.505 L 190.039 288.482 L 204.102 288.482 Z" vector-effect="non-scaling-stroke" class="CrTepRii_0"></path></g><style data-made-with="vivus-instant">.CrTepRii_0{stroke-dasharray:14621 14623;stroke-dashoffset:14622;animation:CrTepRii_draw_0 30400ms linear 0ms infinite,CrTepRii_fade 30400ms linear 0ms infinite;}@keyframes CrTepRii_draw{100%{stroke-dashoffset:0;}}@keyframes CrTepRii_fade{0%{stroke-opacity:1;}98.6842105263158%{stroke-opacity:1;}100%{stroke-opacity:0;}}@keyframes CrTepRii_draw_0{0%{stroke-dashoffset: 14622}43.859649122807014%{ stroke-dashoffset: 0;}100%{ stroke-dashoffset: 0;}}</style></svg>